<svg width="56" height="56" viewBox="0 0 56 56" fill="none" xmlns="http://www.w3.org/2000/svg">
<path d="M29.739 9.82974C29.6673 9.84648 29.5995 9.87722 29.5396 9.9202C29.4797 9.96318 29.4289 10.0176 29.3901 10.0802C29.1036 10.5411 28.5877 10.8513 28.0011 10.8513C27.4074 10.8513 26.8984 10.5432 26.6043 10.0769C26.5253 9.95118 26.3995 9.86199 26.2547 9.82896C26.1099 9.79594 25.9579 9.82179 25.8322 9.90083L14.6497 16.9238C14.5242 17.0025 14.4349 17.1277 14.4015 17.272C14.3681 17.4163 14.3932 17.568 14.4714 17.6938C14.6309 17.9499 14.7229 18.2497 14.7229 18.5743C14.7229 18.8918 14.6309 19.1921 14.4714 19.4482C14.3932 19.574 14.3681 19.7257 14.4015 19.87C14.4349 20.0143 14.5242 20.1395 14.6497 20.2182L25.7545 27.1908C25.8198 27.2318 25.8929 27.2588 25.9691 27.2702C26.0453 27.2817 26.1231 27.2772 26.1975 27.2572C26.272 27.2372 26.3415 27.202 26.4017 27.1539C26.4619 27.1058 26.5115 27.0457 26.5475 26.9776C26.8226 26.4565 27.3631 26.1058 28.0011 26.1058C28.632 26.1058 29.173 26.4565 29.4481 26.9776C29.484 27.0457 29.5337 27.1058 29.5939 27.1539C29.6541 27.202 29.7236 27.2372 29.798 27.2572C29.8725 27.2772 29.9503 27.2817 30.0265 27.2702C30.1027 27.2588 30.1758 27.2318 30.2411 27.1908L41.1665 20.3363C41.2311 20.2958 41.2868 20.2426 41.3301 20.1799C41.3734 20.1172 41.4035 20.0462 41.4184 19.9715C41.4334 19.8967 41.4329 19.8197 41.4171 19.7452C41.4012 19.6706 41.3703 19.6001 41.3262 19.5379C41.1303 19.261 41.0145 18.9343 41.0145 18.5743C41.0145 18.2099 41.1263 17.8859 41.3229 17.614C41.3679 17.5519 41.3997 17.4813 41.4163 17.4064C41.4329 17.3316 41.4339 17.2541 41.4194 17.1789C41.4048 17.1036 41.3749 17.0321 41.3316 16.9689C41.2883 16.9056 41.2325 16.852 41.1676 16.8111L30.1634 9.90083C30.1009 9.86159 30.0312 9.8351 29.9583 9.8229C29.8855 9.8107 29.811 9.81303 29.739 9.82974ZM26.0739 11.0722C26.5772 11.5896 27.2243 11.9713 28.0011 11.9713C28.7737 11.9713 29.4193 11.5906 29.9217 11.0722L40.227 17.5429C40.0851 17.8768 39.8945 18.1922 39.8945 18.5743C39.8945 18.9599 40.083 19.2722 40.2248 19.6046L30.019 26.0074C29.5111 25.4196 28.8297 24.9858 28.0011 24.9858C27.169 24.9858 26.4849 25.4194 25.9765 26.0074L15.5826 19.4821C15.691 19.1851 15.8429 18.9048 15.8429 18.5743C15.8429 18.2406 15.6902 17.9592 15.5815 17.661L26.0739 11.0722Z" fill="url(#paint0_linear_6_299)"/>
<path d="M15.2447 19.2698C15.1191 19.191 14.9675 19.1652 14.823 19.198C14.6784 19.2308 14.5528 19.3195 14.4736 19.4448C14.1795 19.911 13.6705 20.2203 13.0768 20.2203C12.9283 20.2203 12.7859 20.2793 12.6809 20.3843C12.5759 20.4893 12.5169 20.6317 12.5168 20.7803V33.727C12.5169 33.8755 12.5759 34.0179 12.6809 34.1229C12.7859 34.228 12.9283 34.287 13.0768 34.287C13.9962 34.287 14.7229 35.0148 14.7229 35.9342C14.7229 36.2146 14.6527 36.4767 14.5304 36.7085C14.4647 36.8333 14.4484 36.9783 14.4849 37.1146C14.5214 37.2509 14.608 37.3683 14.7273 37.4435L25.8322 44.4162C25.9579 44.4952 26.1099 44.5211 26.2547 44.4881C26.3995 44.455 26.5253 44.3659 26.6043 44.2401C26.8984 43.7739 27.4074 43.4657 28.0011 43.4657C28.5877 43.4657 29.1036 43.7759 29.3901 44.2368C29.429 44.2995 29.4799 44.3539 29.5398 44.3968C29.5998 44.4398 29.6676 44.4705 29.7395 44.4872C29.8113 44.5038 29.8858 44.5061 29.9585 44.494C30.0313 44.4818 30.1009 44.4554 30.1634 44.4162L41.3404 37.4053C41.403 37.3661 41.4572 37.315 41.4999 37.2548C41.5427 37.1947 41.5731 37.1266 41.5895 37.0547C41.6058 36.9827 41.6078 36.9082 41.5953 36.8355C41.5828 36.7628 41.556 36.6932 41.5165 36.6309C41.3592 36.3824 41.2726 36.0991 41.2726 35.7767C41.2726 34.866 42.008 34.1306 42.9187 34.1306C43.0672 34.1306 43.2097 34.0716 43.3147 33.9665C43.4197 33.8615 43.4787 33.7191 43.4787 33.5706V20.7628C43.4786 20.6831 43.4615 20.6044 43.4286 20.5318C43.3956 20.4593 43.3476 20.3946 43.2876 20.3421C43.2277 20.2896 43.1572 20.2505 43.081 20.2275C43.0047 20.2044 42.9244 20.1978 42.8454 20.2082C42.7857 20.2162 42.728 20.2203 42.6617 20.2203C42.1063 20.2203 41.6253 19.9496 41.3218 19.5323C41.2385 19.4175 41.1146 19.3387 40.9754 19.3117C40.8361 19.2847 40.6918 19.3115 40.5715 19.3868L29.6461 26.2414C29.5253 26.3172 29.438 26.4363 29.4021 26.5743C29.3661 26.7123 29.3841 26.8588 29.4525 26.984C29.577 27.2123 29.6472 27.4713 29.6472 27.7518C29.6472 28.6695 28.9135 29.3979 28.0011 29.3979C27.0817 29.3979 26.3539 28.6712 26.3539 27.7518C26.3539 27.4713 26.4252 27.2093 26.5475 26.9774C26.6135 26.8524 26.6298 26.7071 26.593 26.5705C26.5563 26.434 26.4693 26.3164 26.3495 26.2414L15.2447 19.2698ZM15.004 20.4401L25.4253 26.984C25.349 27.2367 25.2339 27.4736 25.2339 27.7518C25.2339 29.274 26.4789 30.5179 28.0011 30.5179C29.5191 30.5179 30.7672 29.2757 30.7672 27.7518C30.7672 27.4746 30.649 27.2365 30.5714 26.9829L40.8286 20.5484C41.2482 20.9365 41.7608 21.1957 42.3587 21.2659V33.1243C41.1136 33.3928 40.1526 34.4552 40.1526 35.7767C40.1526 36.1005 40.3025 36.3754 40.4075 36.667L29.9217 43.2448C29.4193 42.7264 28.7737 42.3457 28.0011 42.3457C27.2243 42.3457 26.5772 42.7274 26.0739 43.2448L15.6515 36.702C15.7278 36.4493 15.8429 36.2124 15.8429 35.9342C15.8429 34.6104 14.8834 33.5485 13.6368 33.2807V21.1926C14.1763 21.0741 14.6323 20.8226 15.004 20.4401Z" fill="url(#paint1_linear_6_299)"/>
<path d="M15.2447 19.2698C15.1191 19.191 14.9675 19.1652 14.823 19.198C14.6784 19.2308 14.5528 19.3195 14.4736 19.4448C14.1795 19.911 13.6705 20.2203 13.0768 20.2203C12.9283 20.2203 12.7859 20.2793 12.6809 20.3843C12.5759 20.4893 12.5169 20.6317 12.5168 20.7803V33.727C12.5169 33.8755 12.5759 34.0179 12.6809 34.1229C12.7859 34.228 12.9283 34.287 13.0768 34.287C13.9962 34.287 14.7229 35.0148 14.7229 35.9342C14.7229 36.2146 14.6527 36.4767 14.5304 36.7085C14.4647 36.8333 14.4484 36.9783 14.4849 37.1146C14.5214 37.2509 14.608 37.3683 14.7273 37.4435L25.8322 44.4162C25.9579 44.4952 26.1099 44.5211 26.2547 44.4881C26.3995 44.455 26.5253 44.3659 26.6043 44.2401C26.8984 43.7739 27.4074 43.4657 28.0011 43.4657C28.5877 43.4657 29.1036 43.7759 29.3901 44.2368C29.429 44.2995 29.4799 44.3539 29.5398 44.3968C29.5998 44.4398 29.6676 44.4705 29.7395 44.4872C29.8113 44.5038 29.8858 44.5061 29.9585 44.494C30.0313 44.4818 30.1009 44.4554 30.1634 44.4162L41.3404 37.4053C41.403 37.3661 41.4572 37.315 41.4999 37.2548C41.5427 37.1947 41.5731 37.1266 41.5895 37.0547C41.6058 36.9827 41.6078 36.9082 41.5953 36.8355C41.5828 36.7628 41.556 36.6932 41.5165 36.6309C41.3592 36.3824 41.2726 36.0991 41.2726 35.7767C41.2726 34.866 42.008 34.1306 42.9187 34.1306C43.0672 34.1306 43.2097 34.0716 43.3147 33.9665C43.4197 33.8615 43.4787 33.7191 43.4787 33.5706V20.7628C43.4786 20.6831 43.4615 20.6044 43.4286 20.5318C43.3956 20.4593 43.3476 20.3946 43.2876 20.3421C43.2277 20.2896 43.1572 20.2505 43.081 20.2275C43.0047 20.2044 42.9244 20.1978 42.8454 20.2082C42.7857 20.2162 42.728 20.2203 42.6617 20.2203C42.1063 20.2203 41.6253 19.9496 41.3218 19.5323C41.2385 19.4175 41.1146 19.3387 40.9754 19.3117C40.8361 19.2847 40.6918 19.3115 40.5715 19.3868L29.6461 26.2414C29.5253 26.3172 29.438 26.4363 29.4021 26.5743C29.3661 26.7123 29.3841 26.8588 29.4525 26.984C29.577 27.2123 29.6472 27.4713 29.6472 27.7518C29.6472 28.6695 28.9135 29.3979 28.0011 29.3979C27.0817 29.3979 26.3539 28.6712 26.3539 27.7518C26.3539 27.4713 26.4252 27.2093 26.5475 26.9774C26.6135 26.8524 26.6298 26.7071 26.593 26.5705C26.5563 26.434 26.4693 26.3164 26.3495 26.2414L15.2447 19.2698ZM15.004 20.4401L25.4253 26.984C25.349 27.2367 25.2339 27.4736 25.2339 27.7518C25.2339 29.274 26.4789 30.5179 28.0011 30.5179C29.5191 30.5179 30.7672 29.2757 30.7672 27.7518C30.7672 27.4746 30.649 27.2365 30.5714 26.9829L40.8286 20.5484C41.2482 20.9365 41.7608 21.1957 42.3587 21.2659V33.1243C41.1136 33.3928 40.1526 34.4552 40.1526 35.7767C40.1526 36.1005 40.3025 36.3754 40.4075 36.667L29.9217 43.2448C29.4193 42.7264 28.7737 42.3457 28.0011 42.3457C27.2243 42.3457 26.5772 42.7274 26.0739 43.2448L15.6515 36.702C15.7278 36.4493 15.8429 36.2124 15.8429 35.9342C15.8429 34.6104 14.8834 33.5485 13.6368 33.2807V21.1926C14.1763 21.0741 14.6323 20.8226 15.004 20.4401Z" fill="url(#paint2_linear_6_299)"/>
<path d="M29.739 9.82974C29.6673 9.84648 29.5995 9.87722 29.5396 9.9202C29.4797 9.96318 29.4289 10.0176 29.3901 10.0802C29.1036 10.5411 28.5877 10.8513 28.0011 10.8513C27.4074 10.8513 26.8984 10.5432 26.6043 10.0769C26.5253 9.95118 26.3995 9.86199 26.2547 9.82896C26.1099 9.79594 25.9579 9.82179 25.8322 9.90083L14.6497 16.9238C14.5242 17.0025 14.4349 17.1277 14.4015 17.272C14.3681 17.4163 14.3932 17.568 14.4714 17.6938C14.6309 17.9499 14.7229 18.2497 14.7229 18.5743C14.7229 18.8918 14.6309 19.1921 14.4714 19.4482C14.3932 19.574 14.3681 19.7257 14.4015 19.87C14.4349 20.0143 14.5242 20.1395 14.6497 20.2182L25.7545 27.1908C25.8198 27.2318 25.8929 27.2588 25.9691 27.2702C26.0453 27.2817 26.1231 27.2772 26.1975 27.2572C26.272 27.2372 26.3415 27.202 26.4017 27.1539C26.4619 27.1058 26.5115 27.0457 26.5475 26.9776C26.8226 26.4565 27.3631 26.1058 28.0011 26.1058C28.632 26.1058 29.173 26.4565 29.4481 26.9776C29.484 27.0457 29.5337 27.1058 29.5939 27.1539C29.6541 27.202 29.7236 27.2372 29.798 27.2572C29.8725 27.2772 29.9503 27.2817 30.0265 27.2702C30.1027 27.2588 30.1758 27.2318 30.2411 27.1908L41.1665 20.3363C41.2311 20.2958 41.2868 20.2426 41.3301 20.1799C41.3734 20.1172 41.4035 20.0462 41.4184 19.9715C41.4334 19.8967 41.4329 19.8197 41.4171 19.7452C41.4012 19.6706 41.3703 19.6001 41.3262 19.5379C41.1303 19.261 41.0145 18.9343 41.0145 18.5743C41.0145 18.2099 41.1263 17.8859 41.3229 17.614C41.3679 17.5519 41.3997 17.4813 41.4163 17.4064C41.4329 17.3316 41.4339 17.2541 41.4194 17.1789C41.4048 17.1036 41.3749 17.0321 41.3316 16.9689C41.2883 16.9056 41.2325 16.852 41.1676 16.8111L30.1634 9.90083C30.1009 9.86159 30.0312 9.8351 29.9583 9.8229C29.8855 9.8107 29.811 9.81303 29.739 9.82974ZM26.0739 11.0722C26.5772 11.5896 27.2243 11.9713 28.0011 11.9713C28.7737 11.9713 29.4193 11.5906 29.9217 11.0722L40.227 17.5429C40.0851 17.8768 39.8945 18.1922 39.8945 18.5743C39.8945 18.9599 40.083 19.2722 40.2248 19.6046L30.019 26.0074C29.5111 25.4196 28.8297 24.9858 28.0011 24.9858C27.169 24.9858 26.4849 25.4194 25.9765 26.0074L15.5826 19.4821C15.691 19.1851 15.8429 18.9048 15.8429 18.5743C15.8429 18.2406 15.6902 17.9592 15.5815 17.661L26.0739 11.0722Z" fill="url(#paint3_linear_6_299)"/>
<path d="M36.9097 21.7275C36.8474 21.6884 36.7781 21.6619 36.7055 21.6495C36.633 21.6372 36.5588 21.6393 36.4871 21.6556C36.4154 21.672 36.3476 21.7023 36.2876 21.7448C36.2276 21.7874 36.1766 21.8413 36.1375 21.9036C36.0583 22.0292 36.0323 22.1811 36.0651 22.3259C36.0979 22.4707 36.1869 22.5966 36.3125 22.6758L36.3059 22.6714C36.3162 22.8097 36.3773 22.9392 36.4775 23.0349C36.5777 23.1307 36.7099 23.1859 36.8484 23.1899C36.997 23.1899 37.1394 23.1309 37.2444 23.0258C37.3494 22.9208 37.4084 22.7784 37.4084 22.6299V22.3499C37.4083 22.2552 37.3841 22.1621 37.3382 22.0792C37.2923 21.9964 37.2262 21.9266 37.1459 21.8763L36.9097 21.7275Z" fill="url(#paint4_linear_6_299)"/>
<path d="M36.8485 24.7354C36.6999 24.7354 36.5575 24.7944 36.4525 24.8994C36.3475 25.0044 36.2885 25.1468 36.2885 25.2954V25.828C36.2885 25.9765 36.3475 26.119 36.4525 26.224C36.5575 26.329 36.6999 26.388 36.8485 26.388C36.997 26.388 37.1394 26.329 37.2444 26.224C37.3495 26.119 37.4085 25.9765 37.4085 25.828V25.2954C37.4085 25.1468 37.3495 25.0044 37.2444 24.8994C37.1394 24.7944 36.997 24.7354 36.8485 24.7354ZM36.8485 27.9324C36.6999 27.9324 36.5575 27.9914 36.4525 28.0964C36.3475 28.2014 36.2885 28.3439 36.2885 28.4924V29.025C36.2885 29.1736 36.3475 29.316 36.4525 29.421C36.5575 29.526 36.6999 29.585 36.8485 29.585C36.997 29.585 37.1394 29.526 37.2444 29.421C37.3495 29.316 37.4085 29.1736 37.4085 29.025V28.4924C37.4085 28.3439 37.3495 28.2014 37.2444 28.0964C37.1394 27.9914 36.997 27.9324 36.8485 27.9324Z" fill="url(#paint5_linear_6_299)"/>
<path d="M36.8484 31.1304C36.7099 31.1343 36.5777 31.1895 36.4775 31.2853C36.3773 31.3811 36.3162 31.5106 36.3059 31.6488L36.3125 31.6444C36.1869 31.7237 36.0979 31.8495 36.0651 31.9943C36.0323 32.1391 36.0583 32.291 36.1375 32.4166C36.1766 32.4789 36.2276 32.5328 36.2876 32.5754C36.3476 32.6179 36.4154 32.6483 36.4871 32.6646C36.5588 32.681 36.633 32.683 36.7055 32.6707C36.7781 32.6584 36.8474 32.6319 36.9097 32.5927L37.1459 32.444C37.2262 32.3937 37.2923 32.3238 37.3382 32.241C37.3841 32.1582 37.4083 32.0651 37.4084 31.9704V31.6904C37.4084 31.5419 37.3494 31.3994 37.2444 31.2944C37.1394 31.1894 36.997 31.1304 36.8484 31.1304Z" fill="url(#paint6_linear_6_299)"/>
<path d="M34.2727 33.1189C34.1279 33.086 33.9761 33.112 33.8505 33.191L33.3583 33.4995C33.2959 33.5385 33.2419 33.5895 33.1992 33.6494C33.1566 33.7094 33.1262 33.7771 33.1097 33.8489C33.0932 33.9206 33.0911 33.9948 33.1033 34.0674C33.1156 34.1399 33.142 34.2093 33.1811 34.2717C33.2202 34.334 33.2711 34.3881 33.3311 34.4307C33.391 34.4734 33.4588 34.5038 33.5305 34.5203C33.6022 34.5367 33.6765 34.5389 33.749 34.5266C33.8215 34.5144 33.891 34.488 33.9533 34.4489L34.4455 34.1393C34.5078 34.1003 34.5619 34.0493 34.6046 33.9894C34.6472 33.9294 34.6776 33.8617 34.6941 33.7899C34.7105 33.7182 34.7127 33.644 34.7005 33.5714C34.6882 33.4989 34.6618 33.4295 34.6227 33.3671C34.5835 33.3048 34.5325 33.2507 34.4724 33.2081C34.4123 33.1655 34.3445 33.1352 34.2727 33.1189ZM30.8952 35.046L30.403 35.3545C30.3406 35.3935 30.2866 35.4445 30.2439 35.5044C30.2013 35.5644 30.1708 35.6321 30.1544 35.7039C30.1379 35.7756 30.1358 35.8498 30.148 35.9224C30.1603 35.9949 30.1867 36.0643 30.2258 36.1267C30.2648 36.189 30.3158 36.2431 30.3757 36.2857C30.4357 36.3284 30.5035 36.3588 30.5752 36.3753C30.6469 36.3917 30.7211 36.3939 30.7937 36.3816C30.8662 36.3694 30.9357 36.343 30.998 36.3039L31.4902 35.9943C31.5525 35.9553 31.6066 35.9043 31.6492 35.8444C31.6919 35.7844 31.7223 35.7167 31.7388 35.6449C31.7552 35.5732 31.7574 35.499 31.7451 35.4264C31.7329 35.3539 31.7065 35.2845 31.6674 35.2221C31.6282 35.1599 31.5772 35.1059 31.5172 35.0634C31.4572 35.0208 31.3894 34.9905 31.3177 34.9742C31.246 34.9578 31.1718 34.9557 31.0993 34.9681C31.0268 34.9804 30.9574 35.0069 30.8952 35.046Z" fill="url(#paint7_linear_6_299)"/>
<path d="M27.639 36.829C27.5672 36.8453 27.4994 36.8756 27.4393 36.9183C27.3793 36.9609 27.3282 37.0149 27.289 37.0772C27.2499 37.1395 27.2234 37.2089 27.2111 37.2814C27.1987 37.3539 27.2008 37.4281 27.2171 37.4998C27.2335 37.5715 27.2638 37.6393 27.3064 37.6993C27.3489 37.7593 27.4029 37.8103 27.4651 37.8494L27.7014 37.9982C27.7908 38.0545 27.8943 38.0844 28 38.0844C28.1056 38.0844 28.2092 38.0545 28.2986 37.9982L28.5348 37.8494C28.5971 37.8103 28.651 37.7593 28.6936 37.6993C28.7361 37.6393 28.7665 37.5715 28.7828 37.4998C28.7992 37.4281 28.8012 37.3539 28.7889 37.2814C28.7766 37.2089 28.7501 37.1395 28.7109 37.0772C28.6371 36.9728 28.5299 36.8968 28.4069 36.8618C28.2839 36.8267 28.1527 36.8348 28.035 36.8847L28.0612 36.9012C28.041 36.8964 28.0206 36.8927 28 36.8902C27.9794 36.8927 27.9589 36.8964 27.9387 36.9012L27.965 36.8847C27.8644 36.8338 27.7508 36.8143 27.639 36.829Z" fill="url(#paint8_linear_6_299)"/>
<path d="M21.7274 33.1189C21.5828 33.1521 21.4573 33.2414 21.3785 33.3671C21.3393 33.4294 21.3128 33.4988 21.3005 33.5713C21.2881 33.6438 21.2902 33.718 21.3066 33.7897C21.3229 33.8614 21.3532 33.9292 21.3958 33.9892C21.4383 34.0492 21.4923 34.1002 21.5545 34.1393L22.0467 34.4489C22.1091 34.488 22.1785 34.5144 22.251 34.5266C22.3236 34.5389 22.3978 34.5367 22.4695 34.5203C22.5413 34.5038 22.609 34.4734 22.669 34.4307C22.7289 34.3881 22.7799 34.334 22.8189 34.2717C22.8581 34.2094 22.8846 34.14 22.8969 34.0675C22.9092 33.995 22.9072 33.9208 22.8908 33.8491C22.8745 33.7774 22.8441 33.7096 22.8016 33.6496C22.759 33.5896 22.7051 33.5386 22.6428 33.4995L22.1495 33.191C22.0239 33.112 21.8721 33.086 21.7274 33.1189ZM25.106 35.046C25.0437 35.0069 24.9743 34.9804 24.9018 34.9681C24.8293 34.9557 24.7551 34.9578 24.6834 34.9742C24.6117 34.9905 24.5439 35.0208 24.4839 35.0634C24.4239 35.1059 24.3729 35.1599 24.3338 35.2221C24.2946 35.2844 24.2681 35.3538 24.2558 35.4263C24.2435 35.4988 24.2455 35.573 24.2619 35.6447C24.2782 35.7164 24.3085 35.7842 24.3511 35.8442C24.3936 35.9042 24.4476 35.9552 24.5099 35.9943L25.002 36.3039C25.0644 36.343 25.1338 36.3694 25.2063 36.3816C25.2789 36.3939 25.3531 36.3917 25.4249 36.3753C25.4966 36.3588 25.5643 36.3284 25.6243 36.2857C25.6842 36.2431 25.7352 36.189 25.7742 36.1267C25.8529 36.001 25.8786 35.8493 25.8456 35.7047C25.8126 35.5602 25.7236 35.4346 25.5981 35.3556L25.106 35.046Z" fill="url(#paint9_linear_6_299)"/>
<path d="M19.1516 31.1304C19.003 31.1304 18.8606 31.1894 18.7556 31.2944C18.6506 31.3994 18.5916 31.5418 18.5916 31.6904V31.9704C18.5917 32.0651 18.6159 32.1582 18.6618 32.241C18.7077 32.3238 18.7738 32.3937 18.8541 32.444L19.0903 32.5927C19.1526 32.6319 19.2219 32.6584 19.2944 32.6707C19.3669 32.683 19.4412 32.681 19.5129 32.6646C19.5846 32.6483 19.6524 32.6179 19.7123 32.5754C19.7723 32.5328 19.8234 32.4789 19.8625 32.4166C19.9359 32.2961 19.9612 32.1524 19.9332 32.0141C19.9052 31.8758 19.8261 31.7531 19.7116 31.6707V31.6904C19.7099 31.6819 19.7081 31.6736 19.7061 31.6652C19.7 31.6581 19.6938 31.6512 19.6875 31.6444L19.705 31.6565C19.6964 31.515 19.6345 31.3821 19.5318 31.2845C19.4291 31.1868 19.2932 31.1318 19.1516 31.1304Z" fill="url(#paint10_linear_6_299)"/>
<path d="M19.1516 24.7354C19.003 24.7354 18.8606 24.7944 18.7556 24.8994C18.6506 25.0044 18.5916 25.1468 18.5916 25.2954V25.828C18.5916 25.9765 18.6506 26.119 18.7556 26.224C18.8606 26.329 19.003 26.388 19.1516 26.388C19.3001 26.388 19.4425 26.329 19.5475 26.224C19.6526 26.119 19.7116 25.9765 19.7116 25.828V25.2954C19.7116 25.1468 19.6526 25.0044 19.5475 24.8994C19.4425 24.7944 19.3001 24.7354 19.1516 24.7354ZM19.1516 27.9324C19.003 27.9324 18.8606 27.9914 18.7556 28.0964C18.6506 28.2014 18.5916 28.3439 18.5916 28.4924V29.025C18.5916 29.1736 18.6506 29.316 18.7556 29.421C18.8606 29.526 19.003 29.585 19.1516 29.585C19.3001 29.585 19.4425 29.526 19.5475 29.421C19.6526 29.316 19.7116 29.1736 19.7116 29.025V28.4924C19.7116 28.3439 19.6526 28.2014 19.5475 28.0964C19.4425 27.9914 19.3001 27.9324 19.1516 27.9324Z" fill="url(#paint11_linear_6_299)"/>
<path d="M19.5136 21.6552C19.4418 21.6388 19.3674 21.6367 19.2948 21.6491C19.2221 21.6615 19.1526 21.6881 19.0903 21.7274L18.8541 21.8761C18.7738 21.9264 18.7077 21.9963 18.6618 22.0791C18.6159 22.1619 18.5917 22.255 18.5916 22.3497V22.6297C18.5916 22.7782 18.6506 22.9207 18.7556 23.0257C18.8606 23.1307 19.003 23.1897 19.1516 23.1897C19.2901 23.1857 19.4223 23.1306 19.5225 23.0348C19.6227 22.939 19.6838 22.8095 19.6941 22.6713L19.6875 22.6756C19.6904 22.6724 19.6934 22.6691 19.6962 22.6658C19.7018 22.6539 19.7069 22.6419 19.7116 22.6297V22.6494C19.8261 22.5669 19.9052 22.4443 19.9332 22.306C19.9612 22.1677 19.9359 22.0239 19.8625 21.9034C19.7837 21.7777 19.6582 21.6884 19.5136 21.6552Z" fill="url(#paint12_linear_6_299)"/>
<path d="M25.4253 17.9453C25.3536 17.9287 25.2792 17.9264 25.2066 17.9386C25.134 17.9508 25.0644 17.9773 25.002 18.0164L24.5098 18.3259C24.4475 18.3649 24.3934 18.4159 24.3508 18.4758C24.3081 18.5358 24.2777 18.6036 24.2612 18.6753C24.2448 18.747 24.2426 18.8212 24.2549 18.8938C24.2671 18.9663 24.2936 19.0357 24.3327 19.0981C24.3718 19.1603 24.4228 19.2143 24.4828 19.2568C24.5428 19.2994 24.6106 19.3297 24.6823 19.3461C24.754 19.3624 24.8282 19.3645 24.9007 19.3521C24.9732 19.3398 25.0426 19.3133 25.1048 19.2742L25.597 18.9657C25.6594 18.9267 25.7134 18.8757 25.7561 18.8158C25.7988 18.7558 25.8292 18.6881 25.8456 18.6163C25.8621 18.5446 25.8643 18.4704 25.852 18.3978C25.8398 18.3253 25.8133 18.2559 25.7742 18.1935C25.6954 18.0678 25.5699 17.9785 25.4253 17.9453ZM22.4689 19.8003C22.3243 19.7671 22.1725 19.7927 22.0467 19.8714L21.5545 20.1809C21.4922 20.2199 21.4381 20.2709 21.3955 20.3308C21.3528 20.3908 21.3224 20.4586 21.3059 20.5303C21.2895 20.602 21.2873 20.6762 21.2996 20.7488C21.3118 20.8213 21.3383 20.8907 21.3773 20.9531C21.4165 21.0153 21.4675 21.0693 21.5275 21.1118C21.5875 21.1544 21.6553 21.1847 21.727 21.2011C21.7987 21.2174 21.8729 21.2195 21.9454 21.2071C22.0179 21.1948 22.0873 21.1683 22.1495 21.1292L22.6417 20.8207C22.7041 20.7817 22.7581 20.7307 22.8008 20.6708C22.8434 20.6108 22.8739 20.5431 22.8903 20.4713C22.9068 20.3996 22.9089 20.3254 22.8967 20.2528C22.8844 20.1803 22.858 20.1109 22.8189 20.0485C22.7798 19.9862 22.7287 19.9321 22.6686 19.8895C22.6086 19.8469 22.5407 19.8166 22.4689 19.8003Z" fill="url(#paint13_linear_6_299)"/>
<path d="M27.7014 16.3221L27.4651 16.4708C27.4029 16.51 27.3489 16.561 27.3064 16.621C27.2638 16.681 27.2335 16.7487 27.2171 16.8204C27.2008 16.8922 27.1987 16.9664 27.2111 17.0389C27.2234 17.1114 27.2499 17.1808 27.289 17.243C27.3687 17.3504 27.4842 17.4258 27.6145 17.4555C27.7449 17.4852 27.8817 17.4672 28 17.4049C28.1183 17.4672 28.255 17.4852 28.3854 17.4555C28.5158 17.4258 28.6313 17.3504 28.7109 17.243C28.7501 17.1808 28.7766 17.1114 28.7889 17.0389C28.8012 16.9664 28.7992 16.8922 28.7828 16.8204C28.7665 16.7487 28.7361 16.681 28.6936 16.621C28.651 16.561 28.5971 16.51 28.5348 16.4708L28.2986 16.3221C28.2092 16.2657 28.1056 16.2358 28 16.2358C27.8943 16.2358 27.7908 16.2657 27.7014 16.3221Z" fill="url(#paint14_linear_6_299)"/>
<path d="M30.5747 17.9453C30.4301 17.9785 30.3046 18.0678 30.2258 18.1935C30.1471 18.3192 30.1214 18.4709 30.1544 18.6155C30.1874 18.76 30.2764 18.8856 30.4019 18.9646L30.8941 19.2742C30.9563 19.3133 31.0257 19.3398 31.0982 19.3521C31.1707 19.3645 31.2449 19.3624 31.3167 19.3461C31.3884 19.3297 31.4561 19.2994 31.5161 19.2568C31.5761 19.2143 31.6271 19.1603 31.6663 19.0981C31.7054 19.0358 31.7319 18.9664 31.7442 18.8939C31.7566 18.8214 31.7545 18.7472 31.7382 18.6755C31.7218 18.6038 31.6915 18.536 31.6489 18.476C31.6064 18.416 31.5524 18.365 31.4902 18.3259L30.998 18.0164C30.9356 17.9773 30.8661 17.9508 30.7934 17.9386C30.7208 17.9264 30.6465 17.9287 30.5747 17.9453ZM33.53 19.8003C33.3854 19.8335 33.2599 19.9228 33.1811 20.0485C33.142 20.1108 33.1155 20.1802 33.1031 20.2527C33.0908 20.3252 33.0929 20.3994 33.1092 20.4711C33.1256 20.5428 33.1559 20.6106 33.1984 20.6706C33.241 20.7306 33.2949 20.7816 33.3572 20.8207L33.8505 21.1292C33.9761 21.2079 34.1279 21.2335 34.2724 21.2005C34.417 21.1675 34.5426 21.0785 34.6216 20.9531C34.6607 20.8908 34.6872 20.8214 34.6996 20.7489C34.7119 20.6764 34.7098 20.6022 34.6935 20.5305C34.6771 20.4588 34.6468 20.391 34.6043 20.331C34.5617 20.271 34.5078 20.22 34.4455 20.1809L33.9533 19.8714C33.8909 19.8323 33.8214 19.8058 33.7487 19.7936C33.6761 19.7814 33.6018 19.7837 33.53 19.8003Z" fill="url(#paint15_linear_6_299)"/>
<path d="M28.0011 29.3979C27.8526 29.3979 27.7101 29.4569 27.6051 29.562C27.5001 29.667 27.4411 29.8094 27.4411 29.9579V42.9058C27.4411 43.0543 27.5001 43.1967 27.6051 43.3017C27.7101 43.4068 27.8526 43.4658 28.0011 43.4658C28.1496 43.4658 28.2921 43.4068 28.3971 43.3017C28.5021 43.1967 28.5611 43.0543 28.5611 42.9058V29.9579C28.5611 29.8094 28.5021 29.667 28.3971 29.562C28.2921 29.4569 28.1496 29.3979 28.0011 29.3979Z" fill="url(#paint16_linear_6_299)"/>
<path d="M28 6.44019C26.4788 6.44019 25.2339 7.68507 25.2339 9.20628C25.2339 10.7275 26.4788 11.9735 28 11.9735C29.5212 11.9735 30.7661 10.7275 30.7661 9.20628C30.7661 7.68507 29.5212 6.44019 28 6.44019ZM28 7.56019C28.9159 7.56019 29.6461 8.29037 29.6461 9.20628C29.6461 10.1222 28.9159 10.8535 28 10.8535C27.0841 10.8535 26.3539 10.1222 26.3539 9.20628C26.3539 8.29037 27.0841 7.56019 28 7.56019Z" fill="url(#paint17_linear_6_299)"/>
<path d="M13.078 15.8069C11.5568 15.8069 10.3119 17.0518 10.3119 18.573C10.3119 20.0942 11.5568 21.3391 13.078 21.3391C14.5992 21.3391 15.8452 20.0942 15.8452 18.573C15.8452 17.0518 14.5992 15.8069 13.078 15.8069ZM13.078 16.9269C13.9939 16.9269 14.7252 17.6571 14.7252 18.573C14.7252 19.4889 13.9939 20.2191 13.078 20.2191C12.1621 20.2191 11.4319 19.4889 11.4319 18.573C11.4319 17.6571 12.1621 16.9269 13.078 16.9269Z" fill="url(#paint18_linear_6_299)"/>
<path d="M28 24.9858C26.4788 24.9858 25.2339 26.2307 25.2339 27.7519C25.2339 29.2731 26.4788 30.518 28 30.518C29.5212 30.518 30.7661 29.2731 30.7661 27.7519C30.7661 26.2307 29.5212 24.9858 28 24.9858ZM28 26.1058C28.9159 26.1058 29.6461 26.836 29.6461 27.7519C29.6461 28.6678 28.9159 29.398 28 29.398C27.0841 29.398 26.3539 28.6678 26.3539 27.7519C26.3539 26.836 27.0841 26.1058 28 26.1058Z" fill="url(#paint19_linear_6_299)"/>
<path d="M42.6617 15.8069C41.1405 15.8069 39.8956 17.0518 39.8956 18.573C39.8956 20.0942 41.1405 21.3391 42.6617 21.3391C44.1829 21.3391 45.4278 20.0942 45.4278 18.573C45.4278 17.0518 44.1829 15.8069 42.6617 15.8069ZM42.6617 16.9269C43.5776 16.9269 44.3078 17.6571 44.3078 18.573C44.3078 19.4889 43.5776 20.2191 42.6617 20.2191C41.7458 20.2191 41.0156 19.4889 41.0156 18.573C41.0156 17.6571 41.7458 16.9269 42.6617 16.9269Z" fill="url(#paint20_linear_6_299)"/>
<path d="M13.078 33.168C11.5568 33.168 10.3119 34.4129 10.3119 35.9341C10.3119 37.4553 11.5568 38.7002 13.078 38.7002C14.5992 38.7002 15.8452 37.4553 15.8452 35.9341C15.8452 34.4129 14.5992 33.168 13.078 33.168ZM13.078 34.288C13.9939 34.288 14.7252 35.0181 14.7252 35.9341C14.7252 36.85 13.9939 37.5802 13.078 37.5802C12.1621 37.5802 11.4319 36.85 11.4319 35.9341C11.4319 35.0181 12.1621 34.288 13.078 34.288Z" fill="url(#paint21_linear_6_299)"/>
<path d="M28 42.3469C26.4788 42.3469 25.2339 43.5929 25.2339 45.1141C25.2339 46.6353 26.4788 47.8802 28 47.8802C29.5212 47.8802 30.7661 46.6353 30.7661 45.1141C30.7661 43.5929 29.5212 42.3469 28 42.3469ZM28 43.4669C28.9159 43.4669 29.6461 44.1982 29.6461 45.1141C29.6461 46.03 28.9159 46.7602 28 46.7602C27.0841 46.7602 26.3539 46.03 26.3539 45.1141C26.3539 44.1982 27.0841 43.4669 28 43.4669Z" fill="url(#paint22_linear_6_299)"/>
<path d="M42.922 33.0127C41.4008 33.0127 40.1548 34.2587 40.1548 35.7799C40.1548 37.3011 41.4008 38.546 42.922 38.546C44.4432 38.546 45.6881 37.3011 45.6881 35.7799C45.6881 34.2587 44.4432 33.0127 42.922 33.0127ZM42.922 34.1327C43.8379 34.1327 44.5681 34.864 44.5681 35.7799C44.5681 36.6958 43.8379 37.426 42.922 37.426C42.0061 37.426 41.2748 36.6958 41.2748 35.7799C41.2748 34.864 42.0061 34.1327 42.922 34.1327Z" fill="url(#paint23_linear_6_299)"/>
<path d="M46.2153 8.99284L45.0231 10.185C44.9181 10.29 44.8591 10.4325 44.8591 10.581C44.8591 10.7295 44.9181 10.8719 45.0231 10.9769C45.1281 11.0819 45.2705 11.1409 45.419 11.1409C45.5675 11.1409 45.71 11.0819 45.815 10.9769L47.0072 9.78471C47.1122 9.67969 47.1711 9.53727 47.1711 9.38877C47.1711 9.24027 47.1122 9.09785 47.0072 8.99284C46.9022 8.88784 46.7597 8.82886 46.6112 8.82886C46.4627 8.82886 46.3203 8.88784 46.2153 8.99284Z" fill="url(#paint24_linear_6_299)"/>
<path d="M10.581 44.8591C10.4324 44.8592 10.29 44.9182 10.185 45.0232L8.99284 46.2154C8.88784 46.3204 8.82886 46.4628 8.82886 46.6113C8.82886 46.7598 8.88784 46.9022 8.99284 47.0073C9.09785 47.1123 9.24027 47.1712 9.38877 47.1712C9.53727 47.1712 9.67969 47.1123 9.78471 47.0073L10.9769 45.8151C11.0819 45.7101 11.1409 45.5676 11.1409 45.4191C11.1409 45.2706 11.0819 45.1282 10.9769 45.0232C10.8719 44.9182 10.7295 44.8592 10.581 44.8591Z" fill="url(#paint25_linear_6_299)"/>
<path d="M52.6345 27.4402C52.486 27.4402 52.3436 27.4992 52.2385 27.6042C52.1335 27.7092 52.0745 27.8517 52.0745 28.0002C52.0745 28.1487 52.1335 28.2911 52.2385 28.3962C52.3436 28.5012 52.486 28.5602 52.6345 28.5602H54.32C54.4685 28.5602 54.611 28.5012 54.716 28.3962C54.821 28.2911 54.88 28.1487 54.88 28.0002C54.88 27.8517 54.821 27.7092 54.716 27.6042C54.611 27.4992 54.4685 27.4402 54.32 27.4402H52.6345Z" fill="url(#paint26_linear_6_299)"/>
<path d="M1.68 27.4402C1.53147 27.4402 1.38904 27.4992 1.28402 27.6042C1.17899 27.7092 1.12 27.8517 1.12 28.0002C1.12 28.1487 1.17899 28.2911 1.28402 28.3962C1.38904 28.5012 1.53147 28.5602 1.68 28.5602H3.36546C3.51399 28.5602 3.65642 28.5012 3.76144 28.3962C3.86646 28.2911 3.92546 28.1487 3.92546 28.0002C3.92546 27.8517 3.86646 27.7092 3.76144 27.6042C3.65642 27.4992 3.51399 27.4402 3.36546 27.4402H1.68Z" fill="url(#paint27_linear_6_299)"/>
<path d="M28 1.12012C27.8515 1.12012 27.709 1.17912 27.604 1.28414C27.499 1.38916 27.44 1.5316 27.44 1.68012V3.36559C27.44 3.51411 27.499 3.65655 27.604 3.76157C27.709 3.86659 27.8515 3.92559 28 3.92559C28.1485 3.92559 28.291 3.86659 28.396 3.76157C28.501 3.65655 28.56 3.51411 28.56 3.36559V1.68012C28.56 1.5316 28.501 1.38916 28.396 1.28414C28.291 1.17912 28.1485 1.12012 28 1.12012Z" fill="url(#paint28_linear_6_299)"/>
<path d="M28 52.0747C27.8515 52.0747 27.709 52.1337 27.604 52.2387C27.499 52.3437 27.44 52.4862 27.44 52.6347V54.3202C27.44 54.4687 27.499 54.6111 27.604 54.7162C27.709 54.8212 27.8515 54.8802 28 54.8802C28.1485 54.8802 28.291 54.8212 28.396 54.7162C28.501 54.6111 28.56 54.4687 28.56 54.3202V52.6347C28.56 52.4862 28.501 52.3437 28.396 52.2387C28.291 52.1337 28.1485 52.0747 28 52.0747Z" fill="url(#paint29_linear_6_299)"/>
<path d="M45.0231 45.0234C44.9181 45.1284 44.8591 45.2708 44.8591 45.4193C44.8591 45.5678 44.9181 45.7102 45.0231 45.8152L46.2153 47.0074C46.3203 47.1124 46.4627 47.1714 46.6112 47.1714C46.7597 47.1714 46.9022 47.1124 47.0072 47.0074C47.1122 46.9024 47.1711 46.76 47.1711 46.6115C47.1711 46.463 47.1122 46.3206 47.0072 46.2155L45.815 45.0234C45.71 44.9184 45.5675 44.8594 45.419 44.8594C45.2705 44.8594 45.1281 44.9184 45.0231 45.0234Z" fill="url(#paint30_linear_6_299)"/>
<path d="M9.38877 8.82886C9.24026 8.82888 9.09784 8.88789 8.99283 8.99292C8.88784 9.09794 8.82886 9.24036 8.82886 9.38886C8.82886 9.53736 8.88784 9.67978 8.99283 9.78479L10.185 10.977C10.29 11.082 10.4325 11.141 10.581 11.141C10.7295 11.141 10.8719 11.082 10.9769 10.977C11.0819 10.872 11.1409 10.7295 11.1409 10.581C11.1409 10.4325 11.0819 10.2901 10.9769 10.1851L9.78471 8.99292C9.67971 8.88789 9.53729 8.82888 9.38877 8.82886Z" fill="url(#paint31_linear_6_299)"/>
<defs>
<linearGradient id="paint0_linear_6_299" x1="14.3871" y1="18.5457" x2="36.2374" y2="18.5457" gradientUnits="userSpaceOnUse">
<stop stop-color="#3DABFC"/>
<stop offset="1" stop-color="#982AF7"/>
</linearGradient>
<linearGradient id="paint1_linear_6_299" x1="12.5168" y1="31.8431" x2="37.534" y2="31.8431" gradientUnits="userSpaceOnUse">
<stop stop-color="#3DABFC"/>
<stop offset="1" stop-color="#982AF7"/>
</linearGradient>
<linearGradient id="paint2_linear_6_299" x1="12.5168" y1="31.8431" x2="37.534" y2="31.8431" gradientUnits="userSpaceOnUse">
<stop stop-color="#3DABFC"/>
<stop offset="1" stop-color="#982AF7"/>
</linearGradient>
<linearGradient id="paint3_linear_6_299" x1="14.3871" y1="18.5457" x2="36.2374" y2="18.5457" gradientUnits="userSpaceOnUse">
<stop stop-color="#3DABFC"/>
<stop offset="1" stop-color="#982AF7"/>
</linearGradient>
<linearGradient id="paint4_linear_6_299" x1="36.0513" y1="22.4157" x2="37.1479" y2="22.4157" gradientUnits="userSpaceOnUse">
<stop stop-color="#3DABFC"/>
<stop offset="1" stop-color="#982AF7"/>
</linearGradient>
<linearGradient id="paint5_linear_6_299" x1="36.2885" y1="27.1602" x2="37.1934" y2="27.1602" gradientUnits="userSpaceOnUse">
<stop stop-color="#3DABFC"/>
<stop offset="1" stop-color="#982AF7"/>
</linearGradient>
<linearGradient id="paint6_linear_6_299" x1="36.0513" y1="31.9045" x2="37.1479" y2="31.9045" gradientUnits="userSpaceOnUse">
<stop stop-color="#3DABFC"/>
<stop offset="1" stop-color="#982AF7"/>
</linearGradient>
<linearGradient id="paint7_linear_6_299" x1="30.1402" y1="34.7472" x2="33.8312" y2="34.7472" gradientUnits="userSpaceOnUse">
<stop stop-color="#3DABFC"/>
<stop offset="1" stop-color="#982AF7"/>
</linearGradient>
<linearGradient id="paint8_linear_6_299" x1="27.2031" y1="37.4543" x2="28.4908" y2="37.4543" gradientUnits="userSpaceOnUse">
<stop stop-color="#3DABFC"/>
<stop offset="1" stop-color="#982AF7"/>
</linearGradient>
<linearGradient id="paint9_linear_6_299" x1="21.2925" y1="34.7472" x2="24.9828" y2="34.7472" gradientUnits="userSpaceOnUse">
<stop stop-color="#3DABFC"/>
<stop offset="1" stop-color="#982AF7"/>
</linearGradient>
<linearGradient id="paint10_linear_6_299" x1="18.5916" y1="31.9045" x2="19.6846" y2="31.9045" gradientUnits="userSpaceOnUse">
<stop stop-color="#3DABFC"/>
<stop offset="1" stop-color="#982AF7"/>
</linearGradient>
<linearGradient id="paint11_linear_6_299" x1="18.5916" y1="27.1602" x2="19.4965" y2="27.1602" gradientUnits="userSpaceOnUse">
<stop stop-color="#3DABFC"/>
<stop offset="1" stop-color="#982AF7"/>
</linearGradient>
<linearGradient id="paint12_linear_6_299" x1="18.5916" y1="22.4154" x2="19.6846" y2="22.4154" gradientUnits="userSpaceOnUse">
<stop stop-color="#3DABFC"/>
<stop offset="1" stop-color="#982AF7"/>
</linearGradient>
<linearGradient id="paint13_linear_6_299" x1="21.2917" y1="19.573" x2="24.9828" y2="19.573" gradientUnits="userSpaceOnUse">
<stop stop-color="#3DABFC"/>
<stop offset="1" stop-color="#982AF7"/>
</linearGradient>
<linearGradient id="paint14_linear_6_299" x1="27.2031" y1="16.8527" x2="28.4908" y2="16.8527" gradientUnits="userSpaceOnUse">
<stop stop-color="#3DABFC"/>
<stop offset="1" stop-color="#982AF7"/>
</linearGradient>
<linearGradient id="paint15_linear_6_299" x1="30.1404" y1="19.5727" x2="33.8306" y2="19.5727" gradientUnits="userSpaceOnUse">
<stop stop-color="#3DABFC"/>
<stop offset="1" stop-color="#982AF7"/>
</linearGradient>
<linearGradient id="paint16_linear_6_299" x1="27.4411" y1="36.4319" x2="28.3461" y2="36.4319" gradientUnits="userSpaceOnUse">
<stop stop-color="#3DABFC"/>
<stop offset="1" stop-color="#982AF7"/>
</linearGradient>
<linearGradient id="paint17_linear_6_299" x1="25.2339" y1="9.20683" x2="29.7039" y2="9.20683" gradientUnits="userSpaceOnUse">
<stop stop-color="#3DABFC"/>
<stop offset="1" stop-color="#982AF7"/>
</linearGradient>
<linearGradient id="paint18_linear_6_299" x1="10.3119" y1="18.573" x2="14.7828" y2="18.573" gradientUnits="userSpaceOnUse">
<stop stop-color="#3DABFC"/>
<stop offset="1" stop-color="#982AF7"/>
</linearGradient>
<linearGradient id="paint19_linear_6_299" x1="25.2339" y1="27.7519" x2="29.7039" y2="27.7519" gradientUnits="userSpaceOnUse">
<stop stop-color="#3DABFC"/>
<stop offset="1" stop-color="#982AF7"/>
</linearGradient>
<linearGradient id="paint20_linear_6_299" x1="39.8956" y1="18.573" x2="44.3656" y2="18.573" gradientUnits="userSpaceOnUse">
<stop stop-color="#3DABFC"/>
<stop offset="1" stop-color="#982AF7"/>
</linearGradient>
<linearGradient id="paint21_linear_6_299" x1="10.3119" y1="35.9341" x2="14.7828" y2="35.9341" gradientUnits="userSpaceOnUse">
<stop stop-color="#3DABFC"/>
<stop offset="1" stop-color="#982AF7"/>
</linearGradient>
<linearGradient id="paint22_linear_6_299" x1="25.2339" y1="45.1136" x2="29.7039" y2="45.1136" gradientUnits="userSpaceOnUse">
<stop stop-color="#3DABFC"/>
<stop offset="1" stop-color="#982AF7"/>
</linearGradient>
<linearGradient id="paint23_linear_6_299" x1="40.1548" y1="35.7793" x2="44.6257" y2="35.7793" gradientUnits="userSpaceOnUse">
<stop stop-color="#3DABFC"/>
<stop offset="1" stop-color="#982AF7"/>
</linearGradient>
<linearGradient id="paint24_linear_6_299" x1="44.8591" y1="9.98487" x2="46.7272" y2="9.98487" gradientUnits="userSpaceOnUse">
<stop stop-color="#3DABFC"/>
<stop offset="1" stop-color="#982AF7"/>
</linearGradient>
<linearGradient id="paint25_linear_6_299" x1="8.82886" y1="46.0152" x2="10.697" y2="46.0152" gradientUnits="userSpaceOnUse">
<stop stop-color="#3DABFC"/>
<stop offset="1" stop-color="#982AF7"/>
</linearGradient>
<linearGradient id="paint26_linear_6_299" x1="52.0745" y1="28.0002" x2="54.3413" y2="28.0002" gradientUnits="userSpaceOnUse">
<stop stop-color="#3DABFC"/>
<stop offset="1" stop-color="#982AF7"/>
</linearGradient>
<linearGradient id="paint27_linear_6_299" x1="1.12" y1="28.0002" x2="3.38681" y2="28.0002" gradientUnits="userSpaceOnUse">
<stop stop-color="#3DABFC"/>
<stop offset="1" stop-color="#982AF7"/>
</linearGradient>
<linearGradient id="paint28_linear_6_299" x1="27.44" y1="2.52285" x2="28.345" y2="2.52285" gradientUnits="userSpaceOnUse">
<stop stop-color="#3DABFC"/>
<stop offset="1" stop-color="#982AF7"/>
</linearGradient>
<linearGradient id="paint29_linear_6_299" x1="27.44" y1="53.4774" x2="28.345" y2="53.4774" gradientUnits="userSpaceOnUse">
<stop stop-color="#3DABFC"/>
<stop offset="1" stop-color="#982AF7"/>
</linearGradient>
<linearGradient id="paint30_linear_6_299" x1="44.8591" y1="46.0154" x2="46.7272" y2="46.0154" gradientUnits="userSpaceOnUse">
<stop stop-color="#3DABFC"/>
<stop offset="1" stop-color="#982AF7"/>
</linearGradient>
<linearGradient id="paint31_linear_6_299" x1="8.82886" y1="9.98491" x2="10.697" y2="9.98491" gradientUnits="userSpaceOnUse">
<stop stop-color="#3DABFC"/>
<stop offset="1" stop-color="#982AF7"/>
</linearGradient>
</defs>
</svg>
