<svg width="56" height="56" viewBox="0 0 56 56" fill="none" xmlns="http://www.w3.org/2000/svg">
<g clip-path="url(#clip0_6_334)">
<path d="M53.539 23.7891C52.4696 23.7891 51.5578 24.4748 51.219 25.4297H46.539V24.4727C46.539 24.0198 46.172 23.6523 45.7187 23.6523C45.2658 23.6523 44.8984 24.0198 44.8984 24.4727V28.4717C44.8984 32.5625 43.5269 36.4146 41.0365 39.3177C37.5583 43.371 33.1731 46.4531 28 48.4804C23.3751 46.668 19.3679 44.0041 16.0884 40.5618C15.7757 40.2337 15.2566 40.2209 14.9285 40.5336C14.6008 40.8459 14.5879 41.365 14.9003 41.6932C16.0325 42.8813 17.2475 43.9793 18.5391 44.9881V51.2194C17.5846 51.5578 16.8985 52.4695 16.8985 53.5394C16.8985 54.8963 18.0025 56.0003 19.3594 56.0003C20.7163 56.0003 21.8203 54.8963 21.8203 53.5394C21.8203 52.47 21.1346 51.5578 20.1797 51.2194V46.1899C22.4313 47.7391 24.8905 49.0358 27.5428 50.0633C27.6907 50.1201 27.8453 50.1488 28.0004 50.1488C28.1551 50.1488 28.3097 50.1201 28.4567 50.0633C33.9438 47.9382 38.5952 44.6826 42.2819 40.3858C43.9875 38.3978 45.2162 36.0112 45.9032 33.414H48.6761C49.0149 34.3689 49.9266 35.0546 50.996 35.0546C52.3529 35.0546 53.4569 33.9506 53.4569 32.5937C53.4569 31.2368 52.3529 30.1328 50.996 30.1328C49.9266 30.1328 49.0149 30.8189 48.6761 31.7734H46.26C46.4446 30.6967 46.539 29.5919 46.539 28.4717V27.0703H51.219C51.5578 28.0252 52.4696 28.7109 53.539 28.7109C54.8959 28.7109 55.9999 27.6069 55.9999 26.25C55.9999 24.8931 54.8959 23.7891 53.539 23.7891ZM19.3594 54.3593C18.907 54.3593 18.5391 53.9914 18.5391 53.5389C18.5391 53.0865 18.907 52.7186 19.3594 52.7186C19.8119 52.7186 20.1797 53.0865 20.1797 53.5389C20.1797 53.9914 19.8119 54.3593 19.3594 54.3593ZM50.996 31.7734C51.4485 31.7734 51.8163 32.1413 51.8163 32.5937C51.8163 33.0462 51.4485 33.414 50.996 33.414C50.5435 33.414 50.1757 33.0462 50.1757 32.5937C50.1757 32.1413 50.5435 31.7734 50.996 31.7734ZM53.539 27.0703C53.0865 27.0703 52.7186 26.7024 52.7186 26.25C52.7186 25.7975 53.0865 25.4297 53.539 25.4297C53.9914 25.4297 54.3593 25.7975 54.3593 26.25C54.3593 26.7024 53.9914 27.0703 53.539 27.0703Z" fill="url(#paint0_linear_6_334)"/>
<path d="M11.1015 28.4716V13.5488C14.1106 12.8374 17.2367 11.5117 20.3992 9.60488C25.0874 6.77866 30.9124 6.77866 35.6006 9.60488C37.0079 10.453 38.4076 11.1857 39.7931 11.8009C39.8085 11.8082 39.8239 11.8154 39.8401 11.8214C41.5525 12.5789 43.2431 13.1574 44.8983 13.5488V20.9632C44.8983 21.4165 45.2653 21.7835 45.7186 21.7835C46.1719 21.7835 46.5389 21.4165 46.5389 20.9632V13.2476C46.5389 12.661 46.1347 12.1453 45.5776 12.0214C44.0711 11.6864 42.5279 11.1831 40.9608 10.5192V4.78086C41.9157 4.44206 42.6014 3.53032 42.6014 2.46093C42.6014 1.104 41.4974 0 40.1405 0C38.7835 0 37.6795 1.104 37.6795 2.46093C37.6795 3.53032 38.3657 4.44206 39.3202 4.78086V9.77023C38.3695 9.3041 37.4112 8.78073 36.4478 8.2001C31.2371 5.05857 24.7627 5.059 19.5524 8.2001C16.4284 10.083 13.3565 11.369 10.4222 12.0214C9.86507 12.1453 9.4609 12.661 9.4609 13.2476V18.2109H4.78086C4.44206 17.256 3.53032 16.5702 2.46093 16.5702C1.104 16.5702 0 17.6742 0 19.0312C0 20.3881 1.104 21.4921 2.46093 21.4921C3.53032 21.4921 4.44206 20.8064 4.78086 19.8515H9.4609V24.5546H7.32382C6.98502 23.5997 6.07328 22.914 5.00389 22.914C3.64696 22.914 2.54296 24.018 2.54296 25.3749C2.54296 26.7318 3.64696 27.8358 5.00389 27.8358C6.07328 27.8358 6.98502 27.1501 7.32382 26.1952H9.4609V28.4716C9.4609 32.4031 10.5965 36.0906 12.7443 39.1352C12.9041 39.3616 13.1578 39.4825 13.4155 39.4825C13.5787 39.4825 13.744 39.4338 13.8876 39.3325C14.2576 39.0711 14.346 38.5592 14.085 38.1892C12.1333 35.4228 11.1015 32.0626 11.1015 28.4716ZM40.1405 1.64062C40.5929 1.64062 40.9608 2.00848 40.9608 2.46093C40.9608 2.91338 40.5929 3.28124 40.1405 3.28124C39.688 3.28124 39.3202 2.91338 39.3202 2.46093C39.3202 2.00848 39.688 1.64062 40.1405 1.64062ZM2.46093 19.8515C2.00848 19.8515 1.64062 19.4836 1.64062 19.0312C1.64062 18.5787 2.00848 18.2109 2.46093 18.2109C2.91338 18.2109 3.28124 18.5787 3.28124 19.0312C3.28124 19.4836 2.91338 19.8515 2.46093 19.8515ZM5.00389 26.1952C4.55143 26.1952 4.18358 25.8274 4.18358 25.3749C4.18358 24.9224 4.55143 24.5546 5.00389 24.5546C5.45634 24.5546 5.8242 24.9224 5.8242 25.3749C5.8242 25.8274 5.45634 26.1952 5.00389 26.1952Z" fill="url(#paint1_linear_6_334)"/>
<path d="M18.9757 14.126C19.3816 13.9252 19.5483 13.433 19.3474 13.0271C19.1466 12.6213 18.6545 12.4546 18.2481 12.6554C16.696 13.4232 15.1374 14.0602 13.6164 14.549C13.0934 14.7169 12.7422 15.198 12.7422 15.7461V28.4716C12.7422 32.1711 13.9731 35.6433 16.2081 38.2487C19.2676 41.8144 23.0816 44.5967 27.5446 46.5193C27.689 46.5816 27.8445 46.6128 28 46.6128C28.1555 46.6128 28.311 46.5816 28.4559 46.5193C32.9184 44.5971 36.732 41.8149 39.7911 38.2495C42.0264 35.6433 43.2578 32.1711 43.2578 28.4716V15.7461C43.2578 15.198 42.9066 14.7169 42.3836 14.549C39.8842 13.7462 37.3173 12.5555 34.7539 11.0101C32.7168 9.7818 30.3815 9.13281 28 9.13281C25.619 9.13281 23.2836 9.7818 21.2461 11.0101L21.0718 11.1148C20.6826 11.3468 20.5553 11.8505 20.7873 12.2397C21.0193 12.629 21.5225 12.7563 21.9118 12.5243C21.9724 12.488 22.0331 12.4516 22.0933 12.4153C23.875 11.3412 25.9176 10.7734 28 10.7734C30.0828 10.7734 32.1255 11.3412 33.9071 12.4153C36.4889 13.9718 39.0814 15.1852 41.6171 16.0247V28.4712C41.6171 31.7793 40.5264 34.8726 38.5461 37.181C35.6951 40.5037 32.1477 43.1094 28 44.9282C23.8519 43.109 20.3045 40.5032 17.4535 37.1806C15.4732 34.8722 14.3829 31.7793 14.3829 28.4712V16.0247C15.8966 15.5235 17.4402 14.8852 18.9757 14.126Z" fill="url(#paint2_linear_6_334)"/>
<path d="M28 19.1953C25.7386 19.1953 23.8984 21.035 23.8984 23.2969V24.664H23.625C22.5697 24.664 21.7109 25.5228 21.7109 26.5781V33.1406C21.7109 34.1959 22.5697 35.0546 23.625 35.0546H32.375C33.4303 35.0546 34.289 34.1959 34.289 33.1406V26.5781C34.289 25.5228 33.4303 24.664 32.375 24.664H32.1015V23.2969C32.1015 21.035 30.2618 19.1953 28 19.1953ZM25.539 23.2969C25.539 21.9399 26.643 20.8359 28 20.8359C29.3569 20.8359 30.4609 21.9399 30.4609 23.2969V24.664H25.539V23.2969ZM32.6484 26.5781V33.1406C32.6484 33.2914 32.5258 33.414 32.375 33.414H23.625C23.4742 33.414 23.3516 33.2914 23.3516 33.1406V26.5781C23.3516 26.4273 23.4742 26.3047 23.625 26.3047H32.375C32.5258 26.3047 32.6484 26.4273 32.6484 26.5781Z" fill="url(#paint3_linear_6_334)"/>
<path d="M28 26.5781C26.6431 26.5781 25.5391 27.6821 25.5391 29.0391C25.5391 30.1084 26.2252 31.0202 27.1797 31.359V32.3203C27.1797 32.7732 27.5471 33.1406 28 33.1406C28.4533 33.1406 28.8203 32.7732 28.8203 32.3203V31.359C29.7752 31.0202 30.4609 30.1084 30.4609 29.0391C30.4609 27.6821 29.3569 26.5781 28 26.5781ZM28 29.8594C27.5475 29.8594 27.1797 29.4915 27.1797 29.0391C27.1797 28.5866 27.5475 28.2187 28 28.2187C28.4524 28.2187 28.8203 28.5866 28.8203 29.0391C28.8203 29.4915 28.4524 29.8594 28 29.8594Z" fill="url(#paint4_linear_6_334)"/>
</g>
<defs>
<linearGradient id="paint0_linear_6_334" x1="14.6741" y1="39.8263" x2="48.0653" y2="39.8263" gradientUnits="userSpaceOnUse">
<stop stop-color="#3DABFC"/>
<stop offset="1" stop-color="#982AF7"/>
</linearGradient>
<linearGradient id="paint1_linear_6_334" x1="-3.46742e-07" y1="19.7413" x2="37.6034" y2="19.7413" gradientUnits="userSpaceOnUse">
<stop stop-color="#3DABFC"/>
<stop offset="1" stop-color="#982AF7"/>
</linearGradient>
<linearGradient id="paint2_linear_6_334" x1="12.7422" y1="27.8728" x2="37.3988" y2="27.8728" gradientUnits="userSpaceOnUse">
<stop stop-color="#3DABFC"/>
<stop offset="1" stop-color="#982AF7"/>
</linearGradient>
<linearGradient id="paint3_linear_6_334" x1="21.7109" y1="27.125" x2="31.874" y2="27.125" gradientUnits="userSpaceOnUse">
<stop stop-color="#3DABFC"/>
<stop offset="1" stop-color="#982AF7"/>
</linearGradient>
<linearGradient id="paint4_linear_6_334" x1="25.5391" y1="29.8594" x2="29.5159" y2="29.8594" gradientUnits="userSpaceOnUse">
<stop stop-color="#3DABFC"/>
<stop offset="1" stop-color="#982AF7"/>
</linearGradient>
<clipPath id="clip0_6_334">
<rect width="56" height="56" fill="white"/>
</clipPath>
</defs>
</svg>
