<svg width="56" height="56" viewBox="0 0 56 56" fill="none" xmlns="http://www.w3.org/2000/svg">
<path d="M35.3818 38.4362H20.6182C18.9212 38.4362 17.5636 37.0786 17.5636 35.3817V20.618C17.5636 18.9211 18.9212 17.5635 20.6182 17.5635H35.3818C37.0788 17.5635 38.4364 18.9211 38.4364 20.618V35.3817C38.4364 37.1635 37.1636 38.4362 35.3818 38.4362ZM20.6182 19.2604C19.8545 19.2604 19.2606 19.8544 19.2606 20.618V35.3817C19.2606 36.1453 19.8545 36.7392 20.6182 36.7392H35.3818C36.1455 36.7392 36.7394 36.1453 36.7394 35.3817V20.618C36.7394 19.8544 36.1455 19.2604 35.3818 19.2604H20.6182Z" fill="white"/>
<path d="M33.1758 34.1089H22.7394C22.2303 34.1089 21.8909 33.7695 21.8909 33.2604V22.8241C21.8909 22.315 22.2303 21.9756 22.7394 21.9756H33.1758C33.6848 21.9756 34.0242 22.315 34.0242 22.8241V33.2604C34.0242 33.6847 33.6848 34.1089 33.1758 34.1089ZM23.5879 32.412H32.3273V23.6726H23.5879V32.412Z" fill="white"/>
<path d="M51.7576 20.5332C49.9758 20.5332 48.5333 19.0908 48.5333 17.309C48.5333 15.5271 49.9758 14.0847 51.7576 14.0847C53.5394 14.0847 54.9818 15.5271 54.9818 17.309C54.9818 19.0908 53.5394 20.5332 51.7576 20.5332ZM51.7576 15.7817C50.9091 15.7817 50.2303 16.4605 50.2303 17.309C50.2303 18.1574 50.9091 18.8362 51.7576 18.8362C52.6061 18.8362 53.2848 18.1574 53.2848 17.309C53.2848 16.4605 52.6061 15.7817 51.7576 15.7817Z" fill="white"/>
<path d="M37.5879 25.3695C37.4182 25.3695 37.2485 25.2847 37.0788 25.1998C36.7394 24.9453 36.6545 24.3514 36.9091 24.012L42.5939 16.7998C42.7636 16.6301 43.0182 16.4604 43.2727 16.4604H49.3818C49.8909 16.4604 50.2303 16.7998 50.2303 17.3089C50.2303 17.818 49.8909 18.1574 49.3818 18.1574H43.697L38.2667 25.0301C38.097 25.2847 37.8424 25.3695 37.5879 25.3695Z" fill="white"/>
<path d="M51.7576 30.8848C49.9758 30.8848 48.5333 29.4423 48.5333 27.6605C48.5333 25.8787 49.9758 24.4363 51.7576 24.4363C53.5394 24.4363 54.9818 25.8787 54.9818 27.6605C54.9818 29.4423 53.5394 30.8848 51.7576 30.8848ZM51.7576 26.1332C50.9091 26.1332 50.2303 26.812 50.2303 27.6605C50.2303 28.509 50.9091 29.1878 51.7576 29.1878C52.6061 29.1878 53.2849 28.509 53.2849 27.6605C53.2849 26.812 52.6061 26.1332 51.7576 26.1332Z" fill="white"/>
<path d="M49.3818 28.509H37.5879C37.0788 28.509 36.7394 28.1696 36.7394 27.6605C36.7394 27.1514 37.0788 26.812 37.5879 26.812H49.3818C49.8909 26.812 50.2303 27.1514 50.2303 27.6605C50.2303 28.1696 49.8909 28.509 49.3818 28.509Z" fill="white"/>
<path d="M51.7576 41.915C49.9758 41.915 48.5333 40.4726 48.5333 38.6908C48.5333 36.909 49.9758 35.4666 51.7576 35.4666C53.5394 35.4666 54.9818 36.909 54.9818 38.6908C54.9818 40.4726 53.5394 41.915 51.7576 41.915ZM51.7576 37.1635C50.9091 37.1635 50.2303 37.8423 50.2303 38.6908C50.2303 39.5393 50.9091 40.2181 51.7576 40.2181C52.6061 40.2181 53.2848 39.5393 53.2848 38.6908C53.2848 37.8423 52.6061 37.1635 51.7576 37.1635Z" fill="white"/>
<path d="M49.3818 39.5392H43.2727C43.0182 39.5392 42.7636 39.3695 42.5939 39.1998L36.9091 30.6301C36.6545 30.2059 36.7394 29.6968 37.1636 29.4423C37.5879 29.1877 38.097 29.2726 38.3515 29.6968L43.7818 37.9271H49.4667C49.9758 37.9271 50.3151 38.2665 50.3151 38.7756C50.3151 39.2847 49.8909 39.5392 49.3818 39.5392Z" fill="white"/>
<path d="M3.98788 20.5332C2.20606 20.5332 0.763634 19.0908 0.763634 17.309C0.763634 15.5271 2.20606 14.0847 3.98788 14.0847C5.76969 14.0847 7.21212 15.5271 7.21212 17.309C7.21212 19.0908 5.76969 20.5332 3.98788 20.5332ZM3.98788 15.7817C3.13939 15.7817 2.4606 16.4605 2.4606 17.309C2.4606 18.1574 3.13939 18.8362 3.98788 18.8362C4.83636 18.8362 5.51515 18.1574 5.51515 17.309C5.51515 16.4605 4.83636 15.7817 3.98788 15.7817Z" fill="white"/>
<path d="M18.1576 25.3695C17.903 25.3695 17.6485 25.2847 17.4788 25.0301L12.0485 18.1574H6.36364C5.85455 18.1574 5.51515 17.818 5.51515 17.3089C5.51515 16.7998 5.85455 16.4604 6.36364 16.4604H12.4727C12.7273 16.4604 12.9818 16.5453 13.1515 16.7998L18.8364 24.012C19.0909 24.3514 19.0909 24.9453 18.6667 25.1998C18.497 25.2847 18.3273 25.3695 18.1576 25.3695Z" fill="white"/>
<path d="M3.98788 30.8848C2.20606 30.8848 0.763634 29.4423 0.763634 27.6605C0.763634 25.8787 2.20606 24.4363 3.98788 24.4363C5.76969 24.4363 7.21212 25.8787 7.21212 27.6605C7.21212 29.4423 5.76969 30.8848 3.98788 30.8848ZM3.98788 26.1332C3.13939 26.1332 2.4606 26.812 2.4606 27.6605C2.4606 28.509 3.13939 29.1878 3.98788 29.1878C4.83636 29.1878 5.51515 28.509 5.51515 27.6605C5.51515 26.812 4.83636 26.1332 3.98788 26.1332Z" fill="white"/>
<path d="M18.1576 28.509H6.36364C5.85455 28.509 5.51515 28.1696 5.51515 27.6605C5.51515 27.1514 5.85455 26.812 6.36364 26.812H18.1576C18.6667 26.812 19.0061 27.1514 19.0061 27.6605C19.0061 28.1696 18.6667 28.509 18.1576 28.509Z" fill="white"/>
<path d="M3.98788 41.915C2.20606 41.915 0.763634 40.4726 0.763634 38.6908C0.763634 36.909 2.20606 35.4666 3.98788 35.4666C5.76969 35.4666 7.21212 36.909 7.21212 38.6908C7.21212 40.4726 5.76969 41.915 3.98788 41.915ZM3.98788 37.1635C3.13939 37.1635 2.4606 37.8423 2.4606 38.6908C2.4606 39.5393 3.13939 40.2181 3.98788 40.2181C4.83636 40.2181 5.51515 39.5393 5.51515 38.6908C5.51515 37.8423 4.83636 37.1635 3.98788 37.1635Z" fill="white"/>
<path d="M12.4727 39.5394H6.36364C5.85455 39.5394 5.51515 39.2 5.51515 38.6909C5.51515 38.1818 5.85455 37.8424 6.36364 37.8424H12.0485L17.4788 29.6121C17.7333 29.1878 18.2424 29.103 18.6667 29.3575C19.0909 29.6121 19.1758 30.1212 18.9212 30.5454L13.2364 39.1151C12.9818 39.3697 12.7273 39.5394 12.4727 39.5394Z" fill="white"/>
<path d="M38.6909 7.46655C36.9091 7.46655 35.4667 6.02413 35.4667 4.24231C35.4667 2.46049 36.9091 1.01807 38.6909 1.01807C40.4727 1.01807 41.9152 2.46049 41.9152 4.24231C41.9152 6.02413 40.4727 7.46655 38.6909 7.46655ZM38.6909 2.71504C37.8424 2.71504 37.1636 3.39382 37.1636 4.24231C37.1636 5.09079 37.8424 5.76958 38.6909 5.76958C39.5394 5.76958 40.2182 5.09079 40.2182 4.24231C40.2182 3.39382 39.5394 2.71504 38.6909 2.71504Z" fill="white"/>
<path d="M31.4788 19.2604C31.2242 19.2604 30.9697 19.1756 30.8 18.921C30.5455 18.5817 30.5455 17.9877 30.9697 17.7332L37.8424 12.3029V6.61802C37.8424 6.10893 38.1818 5.76953 38.6909 5.76953C39.2 5.76953 39.5394 6.10893 39.5394 6.61802V12.7271C39.5394 12.9817 39.4545 13.2362 39.2 13.4059L31.9879 19.0907C31.8182 19.1756 31.6485 19.2604 31.4788 19.2604Z" fill="white"/>
<path d="M28.3394 7.46655C26.5576 7.46655 25.1152 6.02413 25.1152 4.24231C25.1152 2.46049 26.5576 1.01807 28.3394 1.01807C30.1212 1.01807 31.5636 2.46049 31.5636 4.24231C31.5636 6.02413 30.1212 7.46655 28.3394 7.46655ZM28.3394 2.71504C27.4909 2.71504 26.8121 3.39382 26.8121 4.24231C26.8121 5.09079 27.4909 5.76958 28.3394 5.76958C29.1879 5.76958 29.8667 5.09079 29.8667 4.24231C29.8667 3.39382 29.1879 2.71504 28.3394 2.71504Z" fill="white"/>
<path d="M28.3394 19.2604C27.8303 19.2604 27.4909 18.921 27.4909 18.412V6.61802C27.4909 6.10893 27.8303 5.76953 28.3394 5.76953C28.8485 5.76953 29.1879 6.10893 29.1879 6.61802V18.412C29.1879 18.921 28.8485 19.2604 28.3394 19.2604Z" fill="white"/>
<path d="M17.3091 7.46655C15.5273 7.46655 14.0848 6.02413 14.0848 4.24231C14.0848 2.46049 15.5273 1.01807 17.3091 1.01807C19.0909 1.01807 20.5333 2.46049 20.5333 4.24231C20.5333 6.02413 19.0909 7.46655 17.3091 7.46655ZM17.3091 2.71504C16.4606 2.71504 15.7818 3.39382 15.7818 4.24231C15.7818 5.09079 16.4606 5.76958 17.3091 5.76958C18.1576 5.76958 18.8364 5.09079 18.8364 4.24231C18.8364 3.39382 18.1576 2.71504 17.3091 2.71504Z" fill="white"/>
<path d="M25.8788 19.2604C25.7091 19.2604 25.5394 19.1756 25.3697 19.0907L16.8848 13.4059C16.6303 13.2362 16.5455 12.9817 16.5455 12.7271L16.4606 6.61802C16.4606 6.10893 16.8 5.76953 17.3091 5.76953C17.7333 5.76953 18.1576 6.10893 18.1576 6.61802L18.2424 12.3029L26.3879 17.7332C26.8121 17.9877 26.897 18.4968 26.6424 18.921C26.3879 19.0907 26.1333 19.2604 25.8788 19.2604Z" fill="white"/>
<path d="M17.3091 54.9814C15.5273 54.9814 14.0848 53.539 14.0848 51.7572C14.0848 49.9754 15.5273 48.533 17.3091 48.533C19.0909 48.533 20.5333 49.9754 20.5333 51.7572C20.5333 53.539 19.0909 54.9814 17.3091 54.9814ZM17.3091 50.2299C16.4606 50.2299 15.7818 50.9087 15.7818 51.7572C15.7818 52.6057 16.4606 53.2845 17.3091 53.2845C18.1576 53.2845 18.8364 52.6057 18.8364 51.7572C18.8364 50.9087 18.1576 50.2299 17.3091 50.2299Z" fill="white"/>
<path d="M17.3091 50.23C16.8 50.23 16.4606 49.8906 16.4606 49.3816V43.2725C16.4606 43.0179 16.5454 42.7634 16.8 42.5937L24.0121 36.9088C24.3515 36.6543 24.9455 36.6543 25.2 37.0785C25.4545 37.4179 25.4545 38.0119 25.0303 38.2664L18.1576 43.6967V49.3816C18.1576 49.8906 17.8182 50.23 17.3091 50.23Z" fill="white"/>
<path d="M27.6606 54.9817C25.8788 54.9817 24.4364 53.5393 24.4364 51.7574C24.4364 49.9756 25.8788 48.5332 27.6606 48.5332C29.4424 48.5332 30.8849 49.9756 30.8849 51.7574C30.8849 53.5393 29.4424 54.9817 27.6606 54.9817ZM27.6606 50.2302C26.8121 50.2302 26.1333 50.909 26.1333 51.7574C26.1333 52.6059 26.8121 53.2847 27.6606 53.2847C28.5091 53.2847 29.1879 52.6059 29.1879 51.7574C29.1879 50.909 28.5091 50.2302 27.6606 50.2302Z" fill="white"/>
<path d="M27.6606 50.2302C27.1515 50.2302 26.8121 49.8908 26.8121 49.3817V37.5877C26.8121 37.0787 27.1515 36.7393 27.6606 36.7393C28.1697 36.7393 28.5091 37.0787 28.5091 37.5877V49.3817C28.5091 49.8908 28.1697 50.2302 27.6606 50.2302Z" fill="white"/>
<path d="M38.6909 54.9817C36.9091 54.9817 35.4667 53.5393 35.4667 51.7574C35.4667 49.9756 36.9091 48.5332 38.6909 48.5332C40.4727 48.5332 41.9152 49.9756 41.9152 51.7574C41.9152 53.5393 40.4727 54.9817 38.6909 54.9817ZM38.6909 50.2302C37.8424 50.2302 37.1636 50.909 37.1636 51.7574C37.1636 52.6059 37.8424 53.2847 38.6909 53.2847C39.5394 53.2847 40.2182 52.6059 40.2182 51.7574C40.2182 50.909 39.5394 50.2302 38.6909 50.2302Z" fill="white"/>
<path d="M38.6909 50.2302C38.1818 50.2302 37.8424 49.8908 37.8424 49.3817V43.6968L29.6121 38.2665C29.1879 38.012 29.103 37.5029 29.3576 37.0786C29.6121 36.6544 30.1212 36.5695 30.5455 36.8241L39.1152 42.5089C39.3697 42.6786 39.4545 42.9332 39.4545 43.1877V49.2968C39.5394 49.8908 39.2 50.2302 38.6909 50.2302Z" fill="white"/>
</svg>
