<svg width="56" height="56" viewBox="0 0 56 56" fill="none" xmlns="http://www.w3.org/2000/svg">
<g clip-path="url(#clip0_6_417)">
<path d="M49.8909 0C46.5217 0 43.7818 2.73993 43.7818 6.10909C43.7818 7.16291 44.0496 8.15462 44.521 9.02109L34.5133 19.0288C33.1337 17.9546 31.4068 17.3091 29.5273 17.3091C27.6477 17.3091 25.9209 17.9546 24.5402 19.0278L16.7318 11.2193C17.0902 10.6135 17.3091 9.91709 17.3091 9.16364C17.3091 6.91753 15.4825 5.09091 13.2364 5.09091C10.9903 5.09091 9.16364 6.91753 9.16364 9.16364C9.16364 11.4097 10.9903 13.2364 13.2364 13.2364C13.9898 13.2364 14.6863 13.0175 15.2921 12.6591L23.1005 20.4675C22.0273 21.8481 21.3818 23.575 21.3818 25.4545C21.3818 27.3341 22.0273 29.0609 23.1005 30.4406L10.2063 43.3359C9.12087 42.3513 7.68625 41.7455 6.10909 41.7455C2.73993 41.7455 0 44.4854 0 47.8545C0 51.2237 2.73993 53.9636 6.10909 53.9636C9.47825 53.9636 12.2182 51.2237 12.2182 47.8545C12.2182 46.8007 11.9504 45.809 11.479 44.9425L24.5412 31.8803C25.6673 32.7559 27.0256 33.3424 28.5101 33.5287V43.8735C25.6256 44.3601 23.4192 46.8689 23.4192 49.8909C23.4192 53.2601 26.1591 56 29.5283 56C32.8975 56 35.6374 53.2601 35.6374 49.8909C35.6374 46.87 33.431 44.3612 30.5465 43.8735V33.5287C32.031 33.3424 33.3892 32.7559 34.5153 31.8803L42.3238 39.6887C41.9644 40.2956 41.7455 40.992 41.7455 41.7455C41.7455 43.9916 43.5721 45.8182 45.8182 45.8182C48.0643 45.8182 49.8909 43.9916 49.8909 41.7455C49.8909 39.4993 48.0643 37.6727 45.8182 37.6727C45.0647 37.6727 44.3683 37.8916 43.7625 38.25L35.954 30.4416C37.0272 29.0609 37.6727 27.3341 37.6727 25.4545C37.6727 23.575 37.0272 21.8481 35.954 20.4685L45.7948 10.6278C46.8791 11.6124 48.3137 12.2182 49.8909 12.2182C53.2601 12.2182 56 9.47825 56 6.10909C56 2.73993 53.2601 0 49.8909 0ZM11.2 9.16364C11.2 8.04058 12.1133 7.12727 13.2364 7.12727C14.3594 7.12727 15.2727 8.04058 15.2727 9.16364C15.2727 10.2867 14.3594 11.2 13.2364 11.2C12.1133 11.2 11.2 10.2867 11.2 9.16364ZM6.10909 51.9273C3.86298 51.9273 2.03636 50.1007 2.03636 47.8545C2.03636 45.6084 3.86298 43.7818 6.10909 43.7818C8.3552 43.7818 10.1818 45.6084 10.1818 47.8545C10.1818 50.1007 8.3552 51.9273 6.10909 51.9273ZM33.6 49.8909C33.6 52.137 31.7734 53.9636 29.5273 53.9636C27.2812 53.9636 25.4545 52.137 25.4545 49.8909C25.4545 47.6448 27.2812 45.8182 29.5273 45.8182C31.7734 45.8182 33.6 47.6448 33.6 49.8909ZM29.5273 31.5636C26.1581 31.5636 23.4182 28.8237 23.4182 25.4545C23.4182 22.0854 26.1581 19.3455 29.5273 19.3455C32.8964 19.3455 35.6364 22.0854 35.6364 25.4545C35.6364 28.8237 32.8964 31.5636 29.5273 31.5636ZM47.8545 41.7455C47.8545 42.8685 46.9412 43.7818 45.8182 43.7818C44.6951 43.7818 43.7818 42.8685 43.7818 41.7455C43.7818 40.6224 44.6951 39.7091 45.8182 39.7091C46.9412 39.7091 47.8545 40.6224 47.8545 41.7455ZM49.8909 10.1818C47.6448 10.1818 45.8182 8.3552 45.8182 6.10909C45.8182 3.86298 47.6448 2.03636 49.8909 2.03636C52.137 2.03636 53.9636 3.86298 53.9636 6.10909C53.9636 8.3552 52.137 10.1818 49.8909 10.1818Z" fill="url(#paint0_linear_6_417)"/>
</g>
<defs>
<linearGradient id="paint0_linear_6_417" x1="-4.17232e-07" y1="28" x2="45.248" y2="28" gradientUnits="userSpaceOnUse">
<stop stop-color="#3DABFC"/>
<stop offset="1" stop-color="#982AF7"/>
</linearGradient>
<clipPath id="clip0_6_417">
<rect width="56" height="56" fill="white"/>
</clipPath>
</defs>
</svg>
