<svg width="56" height="56" viewBox="0 0 56 56" fill="none" xmlns="http://www.w3.org/2000/svg">
<g clip-path="url(#clip0_6_434)">
<mask id="mask0_6_434" style="mask-type:luminance" maskUnits="userSpaceOnUse" x="0" y="0" width="56" height="56">
<path d="M0 7.62939e-06H56V56H0V7.62939e-06Z" fill="white"/>
</mask>
<g mask="url(#mask0_6_434)">
<path d="M6.04407 43.9542C7.3091 45.7364 9.46576 46.9877 11.972 47.2385C11.9257 47.5427 11.8936 47.8506 11.8936 48.1656C11.8936 52.0393 15.4992 55.1797 19.9467 55.1797C23.2585 55.1797 26.1031 53.4388 27.3404 50.9504C27.4675 50.6949 27.7337 50.5671 28 50.5671C28.2664 50.5671 28.5326 50.6949 28.6596 50.9504C29.8969 53.4388 32.7416 55.1797 36.0533 55.1797C40.5008 55.1797 44.1065 52.0393 44.1065 48.1656C44.1065 47.8506 44.0743 47.5427 44.028 47.2385C45.1949 47.1218 46.286 46.7881 47.2465 46.285" stroke="url(#paint0_linear_6_434)" stroke-width="1.3" stroke-miterlimit="10" stroke-linecap="round" stroke-linejoin="round"/>
<path d="M9.18603 8.06963C7.7705 9.03245 6.86028 10.5329 6.86028 12.2183C6.86028 13.1809 7.16215 14.0805 7.6807 14.8568C4.43194 14.9433 1.82717 17.2587 1.82717 20.1091C1.82717 21.4608 2.41419 22.6921 3.37603 23.624C1.65294 25.1022 0.820374 27.0037 0.820374 28.8767C0.820374 32.1234 3.35787 34.8424 6.7964 35.6411C5.52897 36.9158 4.84701 38.6119 4.84701 40.2747" stroke="url(#paint1_linear_6_434)" stroke-width="1.3" stroke-miterlimit="10" stroke-linecap="round" stroke-linejoin="round"/>
<path d="M50.1368 43.6863C50.7841 42.6769 51.153 41.5135 51.153 40.2747C51.153 38.6118 50.471 36.9157 49.2036 35.641C52.6419 34.8425 55.1797 32.1233 55.1797 28.8767C55.1797 27.0036 54.3472 25.1019 52.624 23.6238C53.5858 22.6921 54.1729 21.4607 54.1729 20.1091C54.1729 17.2585 51.5681 14.9432 48.3193 14.8567C48.8378 14.0804 49.1398 13.1809 49.1398 12.2182C49.1398 9.31289 46.4356 6.95761 43.0998 6.95761C42.7874 6.95761 42.3949 6.98988 42.0812 7.03122C42.0858 6.97435 42.0933 6.91813 42.0923 6.85994C42.0342 3.60472 38.8856 0.866737 35.1482 0.820909C32.2724 0.78558 29.7849 2.25109 28.652 4.3757C28.5213 4.62092 28.2606 4.74353 28 4.74353C27.7394 4.74353 27.4788 4.62092 27.3481 4.3757C26.2153 2.25109 23.7277 0.78558 20.8519 0.820909C17.1142 0.866737 13.9658 3.60472 13.9078 6.85994C13.9068 6.91802 13.9142 6.97435 13.9187 7.03122C13.6051 6.98988 13.2127 6.95761 12.9002 6.95761" stroke="url(#paint2_linear_6_434)" stroke-width="1.3" stroke-miterlimit="10" stroke-linecap="round" stroke-linejoin="round"/>
<path d="M7.68073 14.8566C7.68073 14.8566 9.25288 14.8557 10.3892 15.8606" stroke="url(#paint3_linear_6_434)" stroke-width="1.3" stroke-miterlimit="10" stroke-linecap="round" stroke-linejoin="round"/>
<path d="M11.972 47.2385C11.972 47.2385 12.1837 45.6212 13.3496 44.4966" stroke="url(#paint4_linear_6_434)" stroke-width="1.3" stroke-miterlimit="10" stroke-linecap="round" stroke-linejoin="round"/>
<path d="M52.624 23.6239C52.624 23.6239 51.5729 24.7072 50.0883 24.8252" stroke="url(#paint5_linear_6_434)" stroke-width="1.3" stroke-miterlimit="10" stroke-linecap="round" stroke-linejoin="round"/>
<path d="M42.0923 6.85996C42.0923 6.85996 42.094 8.77927 40.996 10.0916" stroke="url(#paint6_linear_6_434)" stroke-width="1.3" stroke-miterlimit="10" stroke-linecap="round" stroke-linejoin="round"/>
<path d="M28 14.2072V50.5671" stroke="url(#paint7_linear_6_434)" stroke-width="1.3" stroke-miterlimit="10" stroke-linecap="round" stroke-linejoin="round"/>
<path d="M28 4.7436V10.4202" stroke="url(#paint8_linear_6_434)" stroke-width="1.3" stroke-miterlimit="10" stroke-linecap="round" stroke-linejoin="round"/>
<path d="M35.5585 43.773C36.4657 43.773 37.2013 44.5074 37.2013 45.4133C37.2013 46.3193 36.4657 47.0537 35.5585 47.0537C34.6512 47.0537 33.9156 46.3193 33.9156 45.4133C33.9156 44.5074 34.6512 43.773 35.5585 43.773Z" stroke="url(#paint9_linear_6_434)" stroke-width="1.3" stroke-miterlimit="10" stroke-linecap="round" stroke-linejoin="round"/>
<path d="M35.5584 43.7729C35.5584 37.8764 30.672 38.8013 28.0001 38.8013" stroke="url(#paint10_linear_6_434)" stroke-width="1.3" stroke-miterlimit="10" stroke-linejoin="round"/>
<path d="M35.5585 13.5918C36.4657 13.5918 37.2013 12.8573 37.2013 11.9514C37.2013 11.0454 36.4657 10.3111 35.5585 10.3111C34.6512 10.3111 33.9156 11.0454 33.9156 11.9514C33.9156 12.8573 34.6512 13.5918 35.5585 13.5918Z" stroke="url(#paint11_linear_6_434)" stroke-width="1.3" stroke-miterlimit="10" stroke-linecap="round" stroke-linejoin="round"/>
<path d="M35.5584 13.5919C35.5584 19.4883 30.672 18.5635 28.0001 18.5635" stroke="url(#paint12_linear_6_434)" stroke-width="1.3" stroke-miterlimit="10" stroke-linejoin="round"/>
<path d="M42.6244 38.3438C43.5317 38.3438 44.2673 39.0782 44.2673 39.9841C44.2673 40.8901 43.5317 41.6245 42.6244 41.6245C41.7172 41.6245 40.9816 40.8901 40.9816 39.9841C40.9816 39.0782 41.7172 38.3438 42.6244 38.3438Z" stroke="url(#paint13_linear_6_434)" stroke-width="1.3" stroke-miterlimit="10" stroke-linecap="round" stroke-linejoin="round"/>
<path d="M42.6244 38.3438C42.6244 31.9838 36.6194 31.9838 28 31.9838" stroke="url(#paint14_linear_6_434)" stroke-width="1.3" stroke-miterlimit="10" stroke-linejoin="round"/>
<path d="M42.6244 18.8582C43.5317 18.8582 44.2673 18.1237 44.2673 17.2177C44.2673 16.3118 43.5317 15.5775 42.6244 15.5775C41.7172 15.5775 40.9816 16.3118 40.9816 17.2177C40.9816 18.1237 41.7172 18.8582 42.6244 18.8582Z" stroke="url(#paint15_linear_6_434)" stroke-width="1.3" stroke-miterlimit="10" stroke-linecap="round" stroke-linejoin="round"/>
<path d="M42.6244 18.8581C42.6244 25.218 36.6194 25.218 28 25.218" stroke="url(#paint16_linear_6_434)" stroke-width="1.3" stroke-miterlimit="10" stroke-linejoin="round"/>
<path d="M10.0845 28.1101C10.0845 28.1101 10.3499 23.3849 15.1265 22.223" stroke="url(#paint17_linear_6_434)" stroke-width="1.3" stroke-miterlimit="10" stroke-linecap="round" stroke-linejoin="round"/>
<path d="M18.3227 14.2073C18.3227 14.2073 21.594 13.0609 21.8914 9.90851" stroke="url(#paint18_linear_6_434)" stroke-width="1.3" stroke-miterlimit="10" stroke-linecap="round" stroke-linejoin="round"/>
<path d="M18.3227 38.8634C18.3227 38.8634 17.9234 43.1275 21.6606 44.9058" stroke="url(#paint19_linear_6_434)" stroke-width="1.3" stroke-miterlimit="10" stroke-linecap="round" stroke-linejoin="round"/>
<path d="M21.6533 27.6554C21.6533 27.6554 21.8851 30.1296 19.7166 31.1614" stroke="url(#paint20_linear_6_434)" stroke-width="1.3" stroke-miterlimit="10" stroke-linecap="round" stroke-linejoin="round"/>
</g>
</g>
<defs>
<linearGradient id="paint0_linear_6_434" x1="6.04407" y1="49.5669" x2="39.3356" y2="49.5669" gradientUnits="userSpaceOnUse">
<stop stop-color="#3DABFC"/>
<stop offset="1" stop-color="#982AF7"/>
</linearGradient>
<linearGradient id="paint1_linear_6_434" x1="0.820373" y1="24.1721" x2="7.57982" y2="24.1721" gradientUnits="userSpaceOnUse">
<stop stop-color="#3DABFC"/>
<stop offset="1" stop-color="#982AF7"/>
</linearGradient>
<linearGradient id="paint2_linear_6_434" x1="12.9002" y1="22.2533" x2="47.062" y2="22.2533" gradientUnits="userSpaceOnUse">
<stop stop-color="#3DABFC"/>
<stop offset="1" stop-color="#982AF7"/>
</linearGradient>
<linearGradient id="paint3_linear_6_434" x1="7.68073" y1="15.3586" x2="9.86916" y2="15.3586" gradientUnits="userSpaceOnUse">
<stop stop-color="#3DABFC"/>
<stop offset="1" stop-color="#982AF7"/>
</linearGradient>
<linearGradient id="paint4_linear_6_434" x1="11.972" y1="45.8676" x2="13.0851" y2="45.8676" gradientUnits="userSpaceOnUse">
<stop stop-color="#3DABFC"/>
<stop offset="1" stop-color="#982AF7"/>
</linearGradient>
<linearGradient id="paint5_linear_6_434" x1="50.0883" y1="24.2246" x2="52.1371" y2="24.2246" gradientUnits="userSpaceOnUse">
<stop stop-color="#3DABFC"/>
<stop offset="1" stop-color="#982AF7"/>
</linearGradient>
<linearGradient id="paint6_linear_6_434" x1="40.996" y1="8.47576" x2="41.8818" y2="8.47576" gradientUnits="userSpaceOnUse">
<stop stop-color="#3DABFC"/>
<stop offset="1" stop-color="#982AF7"/>
</linearGradient>
<linearGradient id="paint7_linear_6_434" x1="28" y1="32.3872" x2="28.808" y2="32.3872" gradientUnits="userSpaceOnUse">
<stop stop-color="#3DABFC"/>
<stop offset="1" stop-color="#982AF7"/>
</linearGradient>
<linearGradient id="paint8_linear_6_434" x1="28" y1="7.58188" x2="28.808" y2="7.58188" gradientUnits="userSpaceOnUse">
<stop stop-color="#3DABFC"/>
<stop offset="1" stop-color="#982AF7"/>
</linearGradient>
<linearGradient id="paint9_linear_6_434" x1="33.9156" y1="45.4134" x2="36.5704" y2="45.4134" gradientUnits="userSpaceOnUse">
<stop stop-color="#3DABFC"/>
<stop offset="1" stop-color="#982AF7"/>
</linearGradient>
<linearGradient id="paint10_linear_6_434" x1="28.0001" y1="41.2608" x2="34.1072" y2="41.2608" gradientUnits="userSpaceOnUse">
<stop stop-color="#3DABFC"/>
<stop offset="1" stop-color="#982AF7"/>
</linearGradient>
<linearGradient id="paint11_linear_6_434" x1="33.9156" y1="11.9514" x2="36.5704" y2="11.9514" gradientUnits="userSpaceOnUse">
<stop stop-color="#3DABFC"/>
<stop offset="1" stop-color="#982AF7"/>
</linearGradient>
<linearGradient id="paint12_linear_6_434" x1="28.0001" y1="16.1041" x2="34.1072" y2="16.1041" gradientUnits="userSpaceOnUse">
<stop stop-color="#3DABFC"/>
<stop offset="1" stop-color="#982AF7"/>
</linearGradient>
<linearGradient id="paint13_linear_6_434" x1="40.9816" y1="39.9842" x2="43.6364" y2="39.9842" gradientUnits="userSpaceOnUse">
<stop stop-color="#3DABFC"/>
<stop offset="1" stop-color="#982AF7"/>
</linearGradient>
<linearGradient id="paint14_linear_6_434" x1="28" y1="35.1638" x2="39.8165" y2="35.1638" gradientUnits="userSpaceOnUse">
<stop stop-color="#3DABFC"/>
<stop offset="1" stop-color="#982AF7"/>
</linearGradient>
<linearGradient id="paint15_linear_6_434" x1="40.9816" y1="17.2178" x2="43.6364" y2="17.2178" gradientUnits="userSpaceOnUse">
<stop stop-color="#3DABFC"/>
<stop offset="1" stop-color="#982AF7"/>
</linearGradient>
<linearGradient id="paint16_linear_6_434" x1="28" y1="22.038" x2="39.8165" y2="22.038" gradientUnits="userSpaceOnUse">
<stop stop-color="#3DABFC"/>
<stop offset="1" stop-color="#982AF7"/>
</linearGradient>
<linearGradient id="paint17_linear_6_434" x1="10.0845" y1="25.1666" x2="14.1584" y2="25.1666" gradientUnits="userSpaceOnUse">
<stop stop-color="#3DABFC"/>
<stop offset="1" stop-color="#982AF7"/>
</linearGradient>
<linearGradient id="paint18_linear_6_434" x1="18.3227" y1="12.0579" x2="21.2062" y2="12.0579" gradientUnits="userSpaceOnUse">
<stop stop-color="#3DABFC"/>
<stop offset="1" stop-color="#982AF7"/>
</linearGradient>
<linearGradient id="paint19_linear_6_434" x1="18.3103" y1="41.8846" x2="21.0173" y2="41.8846" gradientUnits="userSpaceOnUse">
<stop stop-color="#3DABFC"/>
<stop offset="1" stop-color="#982AF7"/>
</linearGradient>
<linearGradient id="paint20_linear_6_434" x1="19.7166" y1="29.4084" x2="21.2873" y2="29.4084" gradientUnits="userSpaceOnUse">
<stop stop-color="#3DABFC"/>
<stop offset="1" stop-color="#982AF7"/>
</linearGradient>
<clipPath id="clip0_6_434">
<rect width="56" height="56" fill="white"/>
</clipPath>
</defs>
</svg>
