<svg width="56" height="56" viewBox="0 0 56 56" fill="none" xmlns="http://www.w3.org/2000/svg">
<g clip-path="url(#clip0_6_341)">
<path fill-rule="evenodd" clip-rule="evenodd" d="M6.88975 51.625C6.50038 50.1165 5.12925 49 3.5 49C1.568 49 0 50.568 0 52.5C0 54.432 1.568 56 3.5 56C5.12925 56 6.50038 54.8835 6.88975 53.375H18.375C20.7909 53.375 22.75 51.4159 22.75 49V44.625C22.75 44.142 22.358 43.75 21.875 43.75C21.392 43.75 21 44.142 21 44.625V49C21 50.4499 19.8249 51.625 18.375 51.625H6.88975ZM49.1102 53.375C49.4996 54.8835 50.8708 56 52.5 56C54.432 56 56 54.432 56 52.5C56 50.568 54.432 49 52.5 49C50.8708 49 49.4996 50.1165 49.1102 51.625H37.625C36.1751 51.625 35 50.4499 35 49V44.625C35 44.142 34.608 43.75 34.125 43.75C33.642 43.75 33.25 44.142 33.25 44.625V49C33.25 51.4159 35.2091 53.375 37.625 53.375H49.1102ZM5.25 52.5C5.25 53.466 4.466 54.25 3.5 54.25C2.534 54.25 1.75 53.466 1.75 52.5C1.75 51.534 2.534 50.75 3.5 50.75C4.466 50.75 5.25 51.534 5.25 52.5ZM50.75 52.5C50.75 51.534 51.534 50.75 52.5 50.75C53.466 50.75 54.25 51.534 54.25 52.5C54.25 53.466 53.466 54.25 52.5 54.25C51.534 54.25 50.75 53.466 50.75 52.5ZM13.0147 44.625C12.6254 43.1165 11.2542 42 9.625 42C7.693 42 6.125 43.568 6.125 45.5C6.125 47.432 7.693 49 9.625 49C11.2542 49 12.6254 47.8835 13.0147 46.375H14C15.4499 46.375 16.625 45.1999 16.625 43.75V38.5C16.625 38.017 16.233 37.625 15.75 37.625C15.267 37.625 14.875 38.017 14.875 38.5V43.75C14.875 44.233 14.483 44.625 14 44.625H13.0147ZM42.9852 46.375C43.3746 47.8835 44.7458 49 46.375 49C48.307 49 49.875 47.432 49.875 45.5C49.875 43.568 48.307 42 46.375 42C44.7458 42 43.3746 43.1165 42.9852 44.625H42C41.5161 44.625 41.125 44.233 41.125 43.75V38.5C41.125 38.017 40.733 37.625 40.25 37.625C39.767 37.625 39.375 38.017 39.375 38.5V43.75C39.375 45.1999 40.5501 46.375 42 46.375H42.9852ZM11.375 45.5C11.375 46.466 10.591 47.25 9.625 47.25C8.659 47.25 7.875 46.466 7.875 45.5C7.875 44.534 8.659 43.75 9.625 43.75C10.591 43.75 11.375 44.534 11.375 45.5ZM44.625 45.5C44.625 44.534 45.409 43.75 46.375 43.75C47.341 43.75 48.125 44.534 48.125 45.5C48.125 46.466 47.341 47.25 46.375 47.25C45.409 47.25 44.625 46.466 44.625 45.5ZM29.5706 43.8279C37.282 39.2018 42 30.8674 42 21.875C42 21.4646 41.7156 21.1103 41.3149 21.021C35.8908 19.8135 31.5893 16.9251 28.7656 11.8256C28.6116 11.5474 28.3185 11.375 28 11.375C27.6815 11.375 27.3884 11.5474 27.2344 11.8256C24.4107 16.9251 20.1101 19.8135 14.6851 21.021C14.2844 21.1103 14 21.4646 14 21.875C14 30.8674 18.718 39.2018 26.4303 43.8279L27.5503 44.4999C27.8267 44.6661 28.1733 44.6661 28.4506 44.4999L29.5706 43.8279ZM28.6702 42.3273L28 42.7298L27.3306 42.3273C20.3438 38.136 15.9941 30.6775 15.7596 22.5645C20.895 21.273 25.0591 18.5308 28 13.9563C30.9409 18.5308 35.105 21.273 40.2404 22.5645C40.0059 30.6775 35.6571 38.136 28.6702 42.3273ZM27.125 30.5148V35C27.125 35.483 27.517 35.875 28 35.875C28.483 35.875 28.875 35.483 28.875 35V30.5148C30.3835 30.1254 31.5 28.7542 31.5 27.125C31.5 25.193 29.932 23.625 28 23.625C26.068 23.625 24.5 25.193 24.5 27.125C24.5 28.7542 25.6165 30.1254 27.125 30.5148ZM49.1102 28H43.75C43.267 28 42.875 28.392 42.875 28.875C42.875 29.358 43.267 29.75 43.75 29.75H49.1102C49.4996 31.2585 50.8708 32.375 52.5 32.375C54.432 32.375 56 30.807 56 28.875C56 26.943 54.432 25.375 52.5 25.375C50.8708 25.375 49.4996 26.4915 49.1102 28ZM6.88975 29.75H12.25C12.733 29.75 13.125 29.358 13.125 28.875C13.125 28.392 12.733 28 12.25 28H6.88975C6.50038 26.4915 5.12925 25.375 3.5 25.375C1.568 25.375 0 26.943 0 28.875C0 30.807 1.568 32.375 3.5 32.375C5.12925 32.375 6.50038 31.2585 6.88975 29.75ZM5.25 28.875C5.25 29.841 4.466 30.625 3.5 30.625C2.534 30.625 1.75 29.841 1.75 28.875C1.75 27.909 2.534 27.125 3.5 27.125C4.466 27.125 5.25 27.909 5.25 28.875ZM50.75 28.875C50.75 27.909 51.534 27.125 52.5 27.125C53.466 27.125 54.25 27.909 54.25 28.875C54.25 29.841 53.466 30.625 52.5 30.625C51.534 30.625 50.75 29.841 50.75 28.875ZM29.75 27.125C29.75 28.091 28.966 28.875 28 28.875C27.034 28.875 26.25 28.091 26.25 27.125C26.25 26.159 27.034 25.375 28 25.375C28.966 25.375 29.75 26.159 29.75 27.125ZM42.9852 9.625H42C40.5501 9.625 39.375 10.7992 39.375 12.25V17.5C39.375 17.983 39.767 18.375 40.25 18.375C40.733 18.375 41.125 17.983 41.125 17.5V12.25C41.125 11.7661 41.517 11.375 42 11.375H42.9852C43.3746 12.8835 44.7458 14 46.375 14C48.307 14 49.875 12.432 49.875 10.5C49.875 8.568 48.307 7 46.375 7C44.7458 7 43.3746 8.1165 42.9852 9.625ZM13.0147 11.375H14C14.4839 11.375 14.875 11.7661 14.875 12.25V17.5C14.875 17.983 15.267 18.375 15.75 18.375C16.233 18.375 16.625 17.983 16.625 17.5V12.25C16.625 10.7992 15.4508 9.625 14 9.625H13.0147C12.6254 8.1165 11.2542 7 9.625 7C7.693 7 6.125 8.568 6.125 10.5C6.125 12.432 7.693 14 9.625 14C11.2542 14 12.6254 12.8835 13.0147 11.375ZM49.1102 2.625H37.625C35.2091 2.625 33.25 4.58413 33.25 7V14C33.25 14.483 33.642 14.875 34.125 14.875C34.608 14.875 35 14.483 35 14V7C35 5.55013 36.1751 4.375 37.625 4.375H49.1102C49.4996 5.8835 50.8708 7 52.5 7C54.432 7 56 5.432 56 3.5C56 1.568 54.432 0 52.5 0C50.8708 0 49.4996 1.1165 49.1102 2.625ZM6.88975 4.375H18.375C19.8249 4.375 21 5.55013 21 7V14C21 14.483 21.392 14.875 21.875 14.875C22.358 14.875 22.75 14.483 22.75 14V7C22.75 4.58413 20.7909 2.625 18.375 2.625H6.88975C6.50038 1.1165 5.12925 0 3.5 0C1.568 0 0 1.568 0 3.5C0 5.432 1.568 7 3.5 7C5.12925 7 6.50038 5.8835 6.88975 4.375ZM44.625 10.5C44.625 9.534 45.409 8.75 46.375 8.75C47.341 8.75 48.125 9.534 48.125 10.5C48.125 11.466 47.341 12.25 46.375 12.25C45.409 12.25 44.625 11.466 44.625 10.5ZM11.375 10.5C11.375 11.466 10.591 12.25 9.625 12.25C8.659 12.25 7.875 11.466 7.875 10.5C7.875 9.534 8.659 8.75 9.625 8.75C10.591 8.75 11.375 9.534 11.375 10.5ZM50.75 3.5C50.75 2.534 51.534 1.75 52.5 1.75C53.466 1.75 54.25 2.534 54.25 3.5C54.25 4.466 53.466 5.25 52.5 5.25C51.534 5.25 50.75 4.466 50.75 3.5ZM5.25 3.5C5.25 4.466 4.466 5.25 3.5 5.25C2.534 5.25 1.75 4.466 1.75 3.5C1.75 2.534 2.534 1.75 3.5 1.75C4.466 1.75 5.25 2.534 5.25 3.5Z" fill="url(#paint0_linear_6_341)"/>
</g>
<defs>
<linearGradient id="paint0_linear_6_341" x1="-4.17232e-07" y1="28" x2="45.248" y2="28" gradientUnits="userSpaceOnUse">
<stop stop-color="#3DABFC"/>
<stop offset="1" stop-color="#982AF7"/>
</linearGradient>
<clipPath id="clip0_6_341">
<rect width="56" height="56" fill="white"/>
</clipPath>
</defs>
</svg>
