<svg width="50" height="50" viewBox="0 0 50 50" fill="none" xmlns="http://www.w3.org/2000/svg">
<path d="M43.8636 35.6819C43.8636 34.7728 43.4849 34.0152 42.9545 33.4091C43.9394 32.8031 44.6212 31.7425 44.6212 30.5304C44.6212 28.7122 43.1061 27.197 41.2879 27.197H27.5758C28.4091 24.9243 28.6364 23.0304 28.4848 21.2122C28.4848 17.5758 25.5303 14.697 21.8939 14.697C21.5152 14.697 21.1364 15.0001 21.1364 15.3788C20.7576 20.2273 19.3939 24.7728 17.2727 28.7879C17.1212 28.6364 16.8939 28.4849 16.6667 28.4849H8.4091C6.89395 28.4849 5.68182 29.697 5.68182 31.2122V46.0607C5.68182 47.5758 6.89395 48.7879 8.4091 48.7879H16.6667C16.9697 48.7879 17.2727 48.5607 17.3485 48.2576L18.1061 48.6364C18.9394 49.0152 19.8485 49.2425 20.7576 49.2425H38.8636C40.6818 49.2425 42.197 47.7273 42.197 45.9091C42.197 45.0001 41.8182 44.2425 41.2879 43.6364C42.197 43.1061 42.8788 42.0455 43.0303 40.9091C43.0303 40.9091 43.0303 40.8334 43.0303 40.7576V40.6061V40.5304C42.9545 39.697 42.7273 39.0152 42.197 38.4849C43.1818 37.8788 43.8636 36.894 43.8636 35.6819ZM15.9091 47.2728H8.4091C7.72728 47.2728 7.19698 46.7425 7.19698 46.0607V31.2122C7.19698 30.5304 7.72728 30.0001 8.4091 30.0001H15.9091V47.2728Z" fill="url(#paint0_linear_42_455)"/>
<path d="M9.16669 45.6061H13.9394C14.3182 45.6061 14.697 45.2273 14.697 44.8485C14.697 44.4697 14.3182 44.0909 13.9394 44.0909H9.16669C8.71215 44.0909 8.40912 44.4697 8.40912 44.8485C8.40912 45.2273 8.71215 45.6061 9.16669 45.6061Z" fill="url(#paint1_linear_42_455)"/>
<path d="M17.4243 10.1515C17.5 10.4545 17.4243 10.7575 17.197 10.9091L14.7727 13.106L15.1515 16.3636C15.1515 16.6666 15.0758 16.9697 14.8485 17.1212C14.697 17.1969 14.5455 17.2727 14.4697 17.2727C14.3182 17.2727 14.1667 17.2727 14.0909 17.1969L11.2121 15.5303L8.25759 16.9697C7.95456 17.1212 7.65153 17.0454 7.42426 16.8939C7.19699 16.7424 7.12123 16.4394 7.12123 16.1363L7.80305 12.9545L5.53032 10.5303C5.30305 10.303 5.30305 9.99997 5.3788 9.7727C5.45456 9.31815 5.75759 9.09088 5.98487 9.09088L9.24244 8.78785L10.8334 5.90906C10.9849 5.68179 11.2121 5.53027 11.5152 5.53027C11.8182 5.53027 12.0455 5.68179 12.197 5.98482L13.5606 9.01512L16.8182 9.62118C17.1212 9.62118 17.3485 9.84845 17.4243 10.1515Z" fill="url(#paint2_linear_42_455)"/>
<path d="M42.803 10.9091L40.3788 13.1061L40.7576 16.3636C40.7576 16.6667 40.6818 16.9697 40.4546 17.1212C40.303 17.197 40.1515 17.2727 40.0758 17.2727C39.9243 17.2727 39.8485 17.2727 39.697 17.197L36.8182 15.5303L33.8636 16.9697C33.6364 17.1212 33.2576 17.0454 33.1061 16.8939C32.8788 16.7424 32.803 16.4394 32.8788 16.1364L33.5606 12.9545L31.2879 10.5303C31.0606 10.303 31.0606 9.99999 31.1364 9.77272C31.2121 9.46969 31.5152 9.31817 31.7424 9.31817L35 9.01514L36.5909 6.13636C36.7424 5.90908 36.9697 5.75757 37.2727 5.75757C37.5758 5.75757 37.803 5.90908 37.9546 6.21211L39.3182 9.24242L42.5758 9.84848C42.8788 9.92424 43.1061 10.1515 43.1818 10.3788C43.1061 10.3788 43.0303 10.6818 42.803 10.9091Z" fill="url(#paint3_linear_42_455)"/>
<path d="M30.0758 5.37878C30.1515 5.68181 30.0758 5.98484 29.8485 6.13636L27.3485 8.33333L27.7273 11.5909C27.7273 11.8939 27.6515 12.197 27.4242 12.3485C27.2727 12.4242 27.1212 12.5 27.0454 12.5C26.8939 12.5 26.8182 12.5 26.6667 12.4242L23.7879 10.7576L20.8333 12.1212C20.6061 12.2727 20.2273 12.197 20.0757 12.0454C19.9242 11.8939 19.7727 11.5909 19.7727 11.2879L20.4545 8.0303L18.1818 5.60605C17.9545 5.37878 17.9545 5.07575 18.0303 4.84848C18.1061 4.54545 18.4091 4.39393 18.6364 4.31817L21.9697 4.01514L23.5606 1.13636C23.7121 0.909084 23.9394 0.757568 24.2424 0.757568C24.5454 0.757568 24.7727 0.909084 24.9242 1.21211L26.2879 4.24242L29.5454 4.84848C29.7727 4.92424 30 5.15151 30.0758 5.37878Z" fill="url(#paint4_linear_42_455)"/>
<defs>
<linearGradient id="paint0_linear_42_455" x1="5.68182" y1="31.9698" x2="37.1449" y2="31.9698" gradientUnits="userSpaceOnUse">
<stop stop-color="white"/>
</linearGradient>
<linearGradient id="paint1_linear_42_455" x1="8.40912" y1="44.8485" x2="13.4897" y2="44.8485" gradientUnits="userSpaceOnUse">
<stop stop-color="white"/>
</linearGradient>
<linearGradient id="paint2_linear_42_455" x1="5.3335" y1="11.4015" x2="15.1258" y2="11.4015" gradientUnits="userSpaceOnUse">
<stop stop-color="white"/>
</linearGradient>
<linearGradient id="paint3_linear_42_455" x1="31.0911" y1="11.5151" x2="40.8604" y2="11.5151" gradientUnits="userSpaceOnUse">
<stop stop-color="white"/>
</linearGradient>
<linearGradient id="paint4_linear_42_455" x1="17.985" y1="6.62878" x2="27.7773" y2="6.62878" gradientUnits="userSpaceOnUse">
<stop stop-color="white"/>
</linearGradient>
</defs>
</svg>
