<svg width="50" height="50" viewBox="0 0 50 50" fill="none" xmlns="http://www.w3.org/2000/svg">
<path d="M27.3 34.5001C27.3 34.2001 27.3 33.9001 27.2 33.6001V33.4001C28.4 32.6001 29.3 31.3001 29.9 29.8001H30.3C31.2 29.8001 31.9 29.3001 32.2 28.3001C32.4 27.6001 32.6 26.9001 32.3 26.3001C32.1 25.9001 31.8 25.7001 31.3 25.5001C31.2 25.5001 31 25.5001 30.9 25.4001C31.7 22.3001 29.7 20.1001 27.8 19.0001C25.9 18.0001 23.9 18.0001 22.8 18.9001C22.2 18.5001 21.6 18.3001 21.1 18.4001C20.2 18.6001 19.7 19.6001 19.2 20.6001C18.6 21.8001 17.9 23.1001 16.6 23.4001C16.4 23.4001 16.3 23.6001 16.2 23.8001C16.2 24.0001 16.2 24.2001 16.4 24.3001C17.2 24.9001 18.1 25.2001 19 25.2001C18.8 25.2001 18.6 25.2001 18.3 25.3001C17.8 25.4001 17.5 25.7001 17.3 26.1001C17 26.7001 17.2 27.4001 17.4 28.1001C17.7 29.1001 18.4 29.6001 19.3 29.6001H19.7C20.3 31.1001 21.1 32.5001 22.4 33.2001V33.4001C22.4 33.7001 22.3 34.0001 22.3 34.3001C18.9 34.6001 15.2 35.6001 15.2 40.3001C15.2 43.1001 17.7 45.4001 20.8 45.4001H28.9C32 45.4001 34.5 43.1001 34.5 40.3001C34.3 35.7001 30.6 34.7001 27.3 34.5001ZM20.3 29.0001C20.2 28.6001 20.1 28.2001 20 27.7001C20 27.6001 20 27.5001 19.9 27.4001C19.8 27.0001 19.8 26.5001 19.8 26.0001C19.8 25.8001 19.8 25.6001 19.8 25.5001V25.4001C20.9 25.1001 22 24.5001 22.7 23.6001C23.4 24.0001 24.3 24.1001 25.3 24.2001C26.8 24.4001 28.5 24.6001 29.5 25.8001V26.0001C29.5 27.0001 29.3 28.1001 29 29.0001C28.3 31.3001 26.9 33.0001 24.7 33.0001C24 33.0001 23.5 32.9001 23 32.6001C21.6 32.0001 20.8 30.5001 20.3 29.0001ZM21.1 35.6001H21.3H21.6H21.8H22.3L23.3 36.7001L24 37.5001L22.8 38.4001L21.1 35.6001ZM24.6 42.8001L23.5 42.1001L24.2 38.3001L24.6 38.0001L24.8 38.1001L25.6 42.1001L24.6 42.8001ZM26.7 38.2001L25.7 37.4001L25.5 37.2001L26.5 36.1001L27.2 35.4001H27.7H27.9H28.2H28.4L26.7 38.2001Z" fill="white"/>
<path d="M12 29.7C11.9 29.7 11.9 29.7 12 29.7C11.5 29.6 11 29.5 10.6 29.5C10.6 29.3 10.6 29.1 10.6 28.9V28.8C11.5 28.2 12.2 27.2 12.6 26H12.8C13.5 26 14.1 25.6 14.4 24.7C14.5 24.4 14.6 24.1 14.6 23.7C14.6 23.5 14.6 23.3 14.5 23C14.3 22.7 14.1 22.5 13.7 22.4C13.6 22.4 13.6 22.4 13.5 22.4C14 20 12.5 18.2 10.9 17.4C9.4 16.6 7.9 16.6 7.1 17.3C6.4 17.2 6 17 5.6 17.1C4.8 17.3 4.4 18.1 4 18.9C3.5 19.8 3.1 20.8 2.1 21C1.9 21 1.8 21.2 1.8 21.4C1.8 21.6 1.8 21.8 2 21.9C2.4 22.3 2.9 22.5 3.4 22.6C3.1 22.7 2.8 22.9 2.6 23.2C2.3 23.7 2.5 24.3 2.6 24.8C2.9 25.6 3.5 26.1 4.2 26.1H4.4C4.8 27.3 5.5 28.3 6.4 28.9C6.4 29.1 6.4 29.3 6.3 29.5C5.9 29.5 5.5 29.6 5 29.7H4.9C2.8 30.1 0.900001 31.2 0.900001 34.3C0.900001 36.6 2.9 38.4 5.3 38.4H11.5C13.9 38.4 15.9 36.6 15.9 34.3C16 31.2 14 30.1 12 29.7ZM5.3 25.3C5.2 25 5.1 24.6 5 24.3C5 24.2 5 24.2 5 24.1C4.9 23.7 4.9 23.4 4.9 23V22.6C5.7 22.4 6.5 21.9 7 21.2C7.5 21.5 8.2 21.5 8.9 21.6C10.1 21.8 11.3 21.9 12.1 22.8V23C12.1 23.4 12.1 23.7 12 24.1V24.4C12 24.7 11.9 25 11.8 25.3C11.3 27 10.4 28.5 8.5 28.5C8 28.5 7.6 28.4 7.2 28.2C6.2 27.6 5.6 26.5 5.3 25.3ZM6 30.6C6.2 30.6 6.4 30.5 6.6 30.5H6.7L7.7 31.6L7.9 31.8L7 32.4L6 30.6ZM8.4 36L7.7 35.5L8.2 32.6L8.4 32.4L9 35.4L8.4 36ZM10 32.4L9.3 31.9L9.2 31.8L10 30.9L10.3 30.5H10.4C10.6 30.5 10.8 30.5 10.9 30.6L10 32.4Z" fill="white"/>
<path d="M45 29.7001C44.5 29.6001 44 29.5001 43.6 29.5001C43.6 29.3001 43.6 29.1001 43.5 28.9001C44.4 28.3001 45.1 27.3001 45.5 26.1001H45.7C46.4 26.1001 47 25.7001 47.3 24.8001C47.4 24.5001 47.5 24.1001 47.5 23.8001C47.5 23.6001 47.5 23.4001 47.4 23.2001C47.2 22.9001 46.9 22.7001 46.6 22.6001C46.5 22.6001 46.5 22.6001 46.4 22.6001C47 20.2001 45.4 18.4001 43.8 17.6001C42.3 16.8001 40.8 16.8001 39.9 17.5001C39.4 17.2001 39 17.1001 38.6 17.2001C37.8 17.4001 37.4 18.1001 37 19.0001C36.5 19.9001 36.1 20.9001 35.1 21.1001C34.9 21.1001 34.8 21.3001 34.7 21.5001C34.7 21.7001 34.7 21.9001 34.9 22.0001C35.3 22.3001 35.8 22.6001 36.3 22.7001C36 22.8001 35.7 23.0001 35.5 23.3001C35.2 23.8001 35.4 24.4001 35.5 24.9001C35.8 25.7001 36.4 26.2001 37.1 26.2001H37.3C37.7 27.4001 38.4 28.4001 39.3 29.0001V29.1001V29.7001C38.9 29.7001 38.4 29.8001 38 29.9001H37.9C35.8 30.3001 33.9 31.4001 33.9 34.4001C33.9 36.7001 35.9 38.5001 38.3 38.5001H44.5C46.9 38.5001 48.9 36.7001 48.9 34.4001C49 31.2001 47 30.1001 45 29.7001ZM41.4 36.0001L40.7 35.5001L41.2 32.6001L41.4 32.5001L42 35.5001L41.4 36.0001ZM44 30.6001L43 32.4001L42.3 31.9001L42.2 31.8001L43 30.9001L43.4 30.5001H43.5C43.7 30.5001 43.9 30.6001 44 30.6001ZM38.3 25.3001C38.2 25.0001 38.1 24.6001 38.1 24.2001C38.1 24.1001 38.1 24.1001 38.1 24.0001C38 23.6001 38 23.3001 38 22.9001C38 22.8001 38 22.6001 38 22.5001C38.8 22.3001 39.6 21.8001 40.2 21.1001C40.7 21.4001 41.4 21.4001 42.1 21.5001C43.3 21.6001 44.5 21.8001 45.3 22.7001V23.0001C45.3 23.4001 45.2 23.7001 45.2 24.1001C45.2 24.2001 45.2 24.3001 45.1 24.4001C45 24.7001 45 25.0001 44.9 25.3001C44.4 27.0001 43.5 28.5001 41.6 28.5001C39.7 28.4001 38.7 26.9001 38.3 25.3001ZM39.5 30.5001L40.4 31.5001L40.7 31.8001L40 32.4001L38.9 30.6001C39.1 30.5001 39.3 30.5001 39.5 30.5001Z" fill="white"/>
<path d="M21.7 10.8C21.5 10.5 21.3 10.3 20.9 10.2C20.8 10.2 20.8 10.2 20.7 10.2C21.3 7.80004 19.7 6.00004 18.1 5.20004C16.6 4.40004 15.1 4.40004 14.2 5.10004C13.7 4.80004 13.3 4.70004 12.9 4.80004C12.1 5.00004 11.7 5.70004 11.3 6.60004C10.8 7.50004 10.4 8.50004 9.4 8.70004C9.3 8.70004 9.1 8.80004 9.1 9.00004C9.1 9.20004 9.1 9.40004 9.3 9.50004C9.7 9.80004 10.2 10.1 10.7 10.2C10.4 10.3 10.1 10.5 9.9 10.8C9.6 11.3 9.8 11.9 9.9 12.4C10.2 13.2 10.8 13.7 11.5 13.7H11.7C12.4 15.6 13.7 17.1 15.7 17.1C17.7 17.1 19.1 15.6 19.7 13.7H19.9C20.6 13.7 21.2 13.3 21.5 12.4C21.6 12.1 21.7 11.7 21.7 11.4C21.9 11.2 21.9 11 21.7 10.8ZM19.5 10.5C19.5 10.9 19.4 11.2 19.4 11.6C19.4 11.7 19.4 11.8 19.3 11.9C19.3 12.2 19.2 12.5 19.1 12.8C18.6 14.5 17.7 16 15.8 16C14 16 13 14.5 12.6 12.9C12.5 12.6 12.4 12.2 12.4 11.9C12.4 11.8 12.4 11.7 12.4 11.7C12.4 11.3 12.3 11 12.3 10.6C12.3 10.5 12.3 10.3 12.3 10.2C13.1 10 13.9 9.50004 14.5 8.80004C15 9.10004 15.7 9.10004 16.4 9.20004C17.6 9.30004 18.8 9.50004 19.6 10.4V10.5H19.5Z" fill="white"/>
<path d="M39 10.8C38.8 10.5 38.6 10.3 38.2 10.2C38.1 10.2 38.1 10.2 38 10.2C38.6 7.80004 37 6.00004 35.4 5.20004C33.9 4.40004 32.4 4.40004 31.5 5.10004C31 4.80004 30.6 4.70004 30.2 4.80004C29.4 5.00004 29 5.70004 28.6 6.60004C28.1 7.50004 27.7 8.50004 26.7 8.70004C26.5 8.70004 26.4 8.90004 26.3 9.10004C26.3 9.30004 26.3 9.50004 26.5 9.60004C26.9 9.90004 27.4 10.2 27.9 10.3C27.6 10.4 27.3 10.6 27.1 10.9C26.8 11.4 27 12 27.1 12.5C27.4 13.3 28 13.8 28.7 13.8H28.9C29.6 15.7 30.9 17.2 32.9 17.2C34.9 17.2 36.3 15.7 36.9 13.8H37.1C37.8 13.8 38.4 13.4 38.7 12.5C38.8 12.2 38.9 11.8 38.9 11.5C39.2 11.2 39.1 11 39 10.8ZM36.7 10.5C36.7 10.9 36.6 11.2 36.6 11.6C36.6 11.7 36.6 11.8 36.5 11.9C36.5 12.2 36.4 12.5 36.3 12.8C35.9 14.4 35 16 33.1 16C31.3 16 30.3 14.5 29.9 12.9C29.8 12.6 29.7 12.2 29.7 11.9C29.7 11.8 29.7 11.8 29.7 11.7C29.6 11.3 29.6 11 29.6 10.6C29.6 10.5 29.6 10.3 29.6 10.2C30.4 10 31.2 9.50004 31.8 8.80004C32.3 9.10004 33 9.10004 33.7 9.20004C34.9 9.30004 36.1 9.50004 36.9 10.4V10.5H36.7Z" fill="white"/>
</svg>
