<svg width="50" height="50" viewBox="0 0 50 50" fill="none" xmlns="http://www.w3.org/2000/svg">
<path d="M12.2606 7.53808C12.8813 7.53808 13.3865 7.03256 13.3865 6.4118C13.3865 5.79104 12.8813 5.28552 12.2606 5.28552C11.6394 5.28552 11.1343 5.79104 11.1343 6.4118C11.1343 7.03256 11.6394 7.53808 12.2606 7.53808Z" fill="url(#paint0_linear_42_447)"/>
<path d="M7.0794 7.53808C7.70017 7.53808 8.20532 7.03256 8.20532 6.4118C8.20532 5.79104 7.70017 5.28552 7.0794 5.28552C6.45828 5.28552 5.95312 5.79104 5.95312 6.4118C5.95312 7.03256 6.45828 7.53808 7.0794 7.53808Z" fill="url(#paint1_linear_42_447)"/>
<path d="M1.5462 11.3467V43.4935C1.5462 46.2735 3.80325 48.5304 6.58322 48.5304H43.4249C46.197 48.5304 48.4538 46.2735 48.4538 43.4935V11.3467H1.5462ZM26.4796 21.1859C26.3206 21.0595 26.294 20.8283 26.4204 20.6693C26.5464 20.5106 26.7783 20.4836 26.937 20.61L30.137 23.1516C30.2247 23.2216 30.276 23.3275 30.276 23.4395C30.276 23.5519 30.2247 23.6578 30.137 23.7275L26.937 26.2694C26.8695 26.3233 26.7887 26.3491 26.7087 26.3491C26.6002 26.3491 26.4929 26.3017 26.4204 26.2102C26.294 26.0511 26.3206 25.8199 26.4796 25.6935L29.3174 23.4395L26.4796 21.1859ZM20.8942 27.0873L25.1318 15.1154C25.1993 14.9241 25.4083 14.8232 25.6011 14.8914C25.7924 14.9592 25.8926 15.1693 25.8247 15.3606L21.5871 27.3329C21.534 27.4837 21.3921 27.5777 21.2406 27.5777C21.2001 27.5777 21.1584 27.5713 21.1178 27.5569C20.9265 27.4887 20.8263 27.279 20.8942 27.0873ZM16.5819 18.7204L19.7819 16.1785C19.9406 16.0521 20.1722 16.0787 20.2985 16.2381C20.4249 16.3968 20.3983 16.628 20.2393 16.7544L17.4015 19.0084L20.2393 21.2624C20.3983 21.3888 20.4249 21.62 20.2985 21.7787C20.226 21.8702 20.1187 21.918 20.0102 21.918C19.9302 21.918 19.8494 21.8918 19.7819 21.8383L16.5819 19.2963C16.4943 19.2267 16.4429 19.1204 16.4429 19.0084C16.4429 18.8964 16.4943 18.7901 16.5819 18.7204ZM5.58547 30.725H17.101C17.3042 30.725 17.4687 30.8898 17.4687 31.0926C17.4687 31.2958 17.3042 31.4603 17.101 31.4603H5.58547C5.38226 31.4603 5.21783 31.2958 5.21783 31.0926C5.21783 30.8898 5.38226 30.725 5.58547 30.725ZM5.58547 33.9878H23.1704C23.3736 33.9878 23.5381 34.1526 23.5381 34.3555C23.5381 34.5587 23.3736 34.7231 23.1704 34.7231H5.58547C5.38226 34.7231 5.21783 34.5587 5.21783 34.3555C5.21783 34.1526 5.38226 33.9878 5.58547 33.9878ZM34.4224 38.0524C34.6256 38.0524 34.7901 38.2172 34.7901 38.4201C34.7901 38.6229 34.6256 38.7877 34.4224 38.7877H14.2999C14.0966 38.7877 13.9322 38.6229 13.9322 38.4201C13.9322 38.2172 14.0966 38.0524 14.2999 38.0524H34.4224ZM27.3783 34.3555C27.3783 34.1526 27.5427 33.9878 27.7459 33.9878H34.4224C34.6256 33.9878 34.7901 34.1526 34.7901 34.3555C34.7901 34.5587 34.6256 34.7231 34.4224 34.7231H27.7459C27.5427 34.7231 27.3783 34.5587 27.3783 34.3555ZM5.58547 38.0524H9.35063C9.55384 38.0524 9.71827 38.2172 9.71827 38.4201C9.71827 38.6229 9.55384 38.7877 9.35063 38.7877H5.58547C5.38226 38.7877 5.21783 38.6229 5.21783 38.4201C5.21783 38.2172 5.38226 38.0524 5.58547 38.0524ZM5.58547 41.3153H17.101C17.3042 41.3153 17.4687 41.4801 17.4687 41.6829C17.4687 41.8858 17.3042 42.0506 17.101 42.0506H5.58547C5.38226 42.0506 5.21783 41.8858 5.21783 41.6829C5.21783 41.4801 5.38226 41.3153 5.58547 41.3153ZM23.1704 45.3135H5.58547C5.38226 45.3135 5.21783 45.1487 5.21783 44.9458C5.21783 44.743 5.38226 44.5782 5.58547 44.5782H23.1704C23.3736 44.5782 23.5381 44.743 23.5381 44.9458C23.5381 45.1487 23.3736 45.3135 23.1704 45.3135ZM34.4224 45.3135H27.7459C27.5427 45.3135 27.3783 45.1487 27.3783 44.9458C27.3783 44.743 27.5427 44.5782 27.7459 44.5782H34.4224C34.6256 44.5782 34.7901 44.743 34.7901 44.9458C34.7901 45.1487 34.6256 45.3135 34.4224 45.3135ZM44.4164 42.0506H21.3965C21.1932 42.0506 21.0288 41.8858 21.0288 41.6829C21.0288 41.4801 21.1932 41.3153 21.3965 41.3153H44.4164C44.6196 41.3153 44.7841 41.4801 44.7841 41.6829C44.7841 41.8858 44.6196 42.0506 44.4164 42.0506ZM44.4164 38.7877H37.364C37.1608 38.7877 36.9963 38.6229 36.9963 38.4201C36.9963 38.2172 37.1608 38.0524 37.364 38.0524H44.4164C44.6196 38.0524 44.7841 38.2172 44.7841 38.4201C44.7841 38.6229 44.6196 38.7877 44.4164 38.7877ZM44.4164 31.4603H21.3965C21.1932 31.4603 21.0288 31.2958 21.0288 31.0926C21.0288 30.8898 21.1932 30.725 21.3965 30.725H44.4164C44.6196 30.725 44.7841 30.8898 44.7841 31.0926C44.7841 31.2958 44.6196 31.4603 44.4164 31.4603Z" fill="url(#paint2_linear_42_447)"/>
<path d="M48.4538 10.6114V6.49831C48.4538 3.71833 46.197 1.46973 43.4249 1.46973H6.58322C3.80325 1.46973 1.5462 3.71833 1.5462 6.49831V10.6114H48.4538ZM28.8108 4.55057H43.0826C44.0208 4.55057 44.7841 5.31386 44.7841 6.25201C44.7841 7.18621 44.0208 7.94592 43.0826 7.94592H28.8108C27.8726 7.94592 27.1093 7.18621 27.1093 6.25201C27.1093 5.31386 27.8726 4.55057 28.8108 4.55057ZM17.4417 4.55021C18.4682 4.55021 19.3033 5.38531 19.3033 6.41178C19.3033 7.43825 18.4682 8.27335 17.4417 8.27335C16.4156 8.27335 15.5805 7.43825 15.5805 6.41178C15.5805 5.38531 16.4156 4.55021 17.4417 4.55021ZM12.2606 4.55021C13.2867 4.55021 14.1218 5.38531 14.1218 6.41178C14.1218 7.43825 13.2867 8.27335 12.2606 8.27335C11.2341 8.27335 10.399 7.43825 10.399 6.41178C10.399 5.38531 11.2341 4.55021 12.2606 4.55021ZM7.0794 4.55021C8.10551 4.55021 8.94061 5.38531 8.94061 6.41178C8.94061 7.43825 8.10551 8.27335 7.0794 8.27335C6.05293 8.27335 5.21783 7.43825 5.21783 6.41178C5.21783 5.38531 6.05293 4.55021 7.0794 4.55021Z" fill="url(#paint3_linear_42_447)"/>
<path d="M28.8108 7.21065H43.0826C43.6154 7.21065 44.0488 6.78053 44.0488 6.25204C44.0488 5.71924 43.6154 5.28589 43.0826 5.28589H28.8108C28.269 5.28589 27.8446 5.71026 27.8446 6.25204C27.8446 6.78053 28.278 7.21065 28.8108 7.21065Z" fill="url(#paint4_linear_42_447)"/>
<path d="M17.4417 7.53808C18.0629 7.53808 18.568 7.03256 18.568 6.4118C18.568 5.79104 18.0629 5.28552 17.4417 5.28552C16.821 5.28552 16.3158 5.79104 16.3158 6.4118C16.3158 7.03256 16.821 7.53808 17.4417 7.53808Z" fill="url(#paint5_linear_42_447)"/>
<defs>
<linearGradient id="paint0_linear_42_447" x1="11.1343" y1="6.4118" x2="12.9541" y2="6.4118" gradientUnits="userSpaceOnUse">
<stop stop-color="white"/>
</linearGradient>
<linearGradient id="paint1_linear_42_447" x1="5.95312" y1="6.4118" x2="7.7729" y2="6.4118" gradientUnits="userSpaceOnUse">
<stop stop-color="white"/>
</linearGradient>
<linearGradient id="paint2_linear_42_447" x1="1.5462" y1="29.9385" x2="39.4475" y2="29.9385" gradientUnits="userSpaceOnUse">
<stop stop-color="white"/>
</linearGradient>
<linearGradient id="paint3_linear_42_447" x1="1.5462" y1="6.04054" x2="39.4475" y2="6.04054" gradientUnits="userSpaceOnUse">
<stop stop-color="white"/>
</linearGradient>
<linearGradient id="paint4_linear_42_447" x1="27.8446" y1="6.24827" x2="40.9376" y2="6.24827" gradientUnits="userSpaceOnUse">
<stop stop-color="white"/>
</linearGradient>
<linearGradient id="paint5_linear_42_447" x1="16.3158" y1="6.4118" x2="18.1356" y2="6.4118" gradientUnits="userSpaceOnUse">
<stop stop-color="white"/>
</linearGradient>
</defs>
</svg>
